<mxfile host="app.diagrams.net" modified="2021-06-04T08:51:59.807Z" agent="5.0 (X11; Linux x86_64) AppleWebKit/537.36 (KHTML, like Gecko) Chrome/90.0.4430.93 Safari/537.36" etag="tSVlmF6Y8FwLYKnvPQR-" version="14.7.5" type="github">
  <diagram id="oNSS92o_-GYiXgV0fH33" name="Page-1">
    <mxGraphModel dx="1479" dy="849" grid="1" gridSize="10" guides="1" tooltips="1" connect="1" arrows="1" fold="1" page="1" pageScale="1" pageWidth="827" pageHeight="1169" math="0" shadow="0">
      <root>
        <mxCell id="0" />
        <mxCell id="1" parent="0" />
        <mxCell id="2YFqyYWapaVs9yzSWr-e-1" value="&lt;div style=&quot;background-color: rgb(255 , 255 , 255) ; font-family: &amp;#34;droid sans mono&amp;#34; , monospace , monospace , &amp;#34;droid sans fallback&amp;#34; ; font-size: 18px ; line-height: 24px&quot;&gt;&lt;br&gt;&lt;/div&gt;" style="text;html=1;align=center;verticalAlign=middle;resizable=0;points=[];autosize=1;strokeColor=none;strokeWidth=1;" parent="1" vertex="1">
          <mxGeometry x="70" y="85" width="20" height="30" as="geometry" />
        </mxCell>
        <mxCell id="2YFqyYWapaVs9yzSWr-e-6" style="edgeStyle=orthogonalEdgeStyle;rounded=0;orthogonalLoop=1;jettySize=auto;html=1;entryX=0;entryY=0.5;entryDx=0;entryDy=0;strokeWidth=1;" parent="1" source="2YFqyYWapaVs9yzSWr-e-2" target="2YFqyYWapaVs9yzSWr-e-4" edge="1">
          <mxGeometry relative="1" as="geometry" />
        </mxCell>
        <mxCell id="2YFqyYWapaVs9yzSWr-e-11" style="edgeStyle=orthogonalEdgeStyle;rounded=0;orthogonalLoop=1;jettySize=auto;html=1;entryX=0;entryY=0.5;entryDx=0;entryDy=0;strokeWidth=1;" parent="1" source="2YFqyYWapaVs9yzSWr-e-2" target="2YFqyYWapaVs9yzSWr-e-8" edge="1">
          <mxGeometry relative="1" as="geometry" />
        </mxCell>
        <mxCell id="2YFqyYWapaVs9yzSWr-e-12" style="edgeStyle=orthogonalEdgeStyle;rounded=0;orthogonalLoop=1;jettySize=auto;html=1;entryX=0;entryY=0.5;entryDx=0;entryDy=0;strokeWidth=1;" parent="1" source="2YFqyYWapaVs9yzSWr-e-2" target="2YFqyYWapaVs9yzSWr-e-10" edge="1">
          <mxGeometry relative="1" as="geometry" />
        </mxCell>
        <mxCell id="2YFqyYWapaVs9yzSWr-e-2" value="&lt;span style=&quot;font-family: &amp;#34;droid sans mono&amp;#34; , monospace , monospace , &amp;#34;droid sans fallback&amp;#34; ; font-size: 18px ; background-color: rgb(255 , 255 , 255)&quot;&gt;msdc_drv_probe&lt;/span&gt;" style="rounded=0;whiteSpace=wrap;html=1;strokeWidth=1;" parent="1" vertex="1">
          <mxGeometry x="20" y="130" width="170" height="60" as="geometry" />
        </mxCell>
        <mxCell id="2YFqyYWapaVs9yzSWr-e-3" value="&lt;div style=&quot;color: rgb(0 , 0 , 0) ; background-color: rgb(255 , 255 , 255) ; font-family: &amp;#34;droid sans mono&amp;#34; , monospace , monospace , &amp;#34;droid sans fallback&amp;#34; ; font-weight: normal ; font-size: 18px ; line-height: 24px&quot;&gt;&lt;br&gt;&lt;/div&gt;" style="text;whiteSpace=wrap;html=1;strokeWidth=1;" parent="1" vertex="1">
          <mxGeometry x="300" y="85" width="170" height="40" as="geometry" />
        </mxCell>
        <mxCell id="2YFqyYWapaVs9yzSWr-e-4" value="&lt;span style=&quot;font-family: &amp;#34;droid sans mono&amp;#34; , monospace , monospace , &amp;#34;droid sans fallback&amp;#34; ; font-size: 18px ; background-color: rgb(255 , 255 , 255)&quot;&gt;mmc_alloc_host&lt;/span&gt;" style="rounded=0;whiteSpace=wrap;html=1;fillColor=none;gradientColor=none;align=left;strokeWidth=1;" parent="1" vertex="1">
          <mxGeometry x="312" y="130" width="146" height="60" as="geometry" />
        </mxCell>
        <mxCell id="2YFqyYWapaVs9yzSWr-e-8" value="&lt;span style=&quot;font-family: &amp;#34;droid sans mono&amp;#34; , monospace , monospace , &amp;#34;droid sans fallback&amp;#34; ; font-size: 18px ; background-color: rgb(255 , 255 , 255)&quot;&gt;devm_request_irq&lt;/span&gt;" style="rounded=0;whiteSpace=wrap;html=1;fillColor=none;gradientColor=none;align=left;strokeWidth=1;" parent="1" vertex="1">
          <mxGeometry x="312" y="250" width="168" height="60" as="geometry" />
        </mxCell>
        <mxCell id="72B8_UldQrA-lnPJ2LUA-20" style="edgeStyle=orthogonalEdgeStyle;rounded=0;orthogonalLoop=1;jettySize=auto;html=1;strokeWidth=1;" parent="1" source="2YFqyYWapaVs9yzSWr-e-10" target="72B8_UldQrA-lnPJ2LUA-19" edge="1">
          <mxGeometry relative="1" as="geometry" />
        </mxCell>
        <mxCell id="2YFqyYWapaVs9yzSWr-e-10" value="&lt;span style=&quot;font-family: &amp;#34;droid sans mono&amp;#34; , monospace , monospace , &amp;#34;droid sans fallback&amp;#34; ; font-size: 18px ; background-color: rgb(255 , 255 , 255)&quot;&gt;mmc_add_host&lt;/span&gt;" style="rounded=0;whiteSpace=wrap;html=1;fillColor=none;gradientColor=none;align=left;strokeWidth=1;" parent="1" vertex="1">
          <mxGeometry x="312" y="350" width="148" height="60" as="geometry" />
        </mxCell>
        <mxCell id="2YFqyYWapaVs9yzSWr-e-18" style="edgeStyle=orthogonalEdgeStyle;rounded=0;orthogonalLoop=1;jettySize=auto;html=1;entryX=0;entryY=0.5;entryDx=0;entryDy=0;strokeWidth=1;" parent="1" source="2YFqyYWapaVs9yzSWr-e-14" target="2YFqyYWapaVs9yzSWr-e-16" edge="1">
          <mxGeometry relative="1" as="geometry" />
        </mxCell>
        <mxCell id="2YFqyYWapaVs9yzSWr-e-19" style="edgeStyle=orthogonalEdgeStyle;rounded=0;orthogonalLoop=1;jettySize=auto;html=1;entryX=0;entryY=0.5;entryDx=0;entryDy=0;strokeWidth=1;" parent="1" source="2YFqyYWapaVs9yzSWr-e-14" target="2YFqyYWapaVs9yzSWr-e-17" edge="1">
          <mxGeometry relative="1" as="geometry" />
        </mxCell>
        <mxCell id="2YFqyYWapaVs9yzSWr-e-14" value="&lt;span style=&quot;font-family: &amp;#34;droid sans mono&amp;#34; , monospace , monospace , &amp;#34;droid sans fallback&amp;#34; ; font-size: 18px ; background-color: rgb(255 , 255 , 255)&quot;&gt;mmc_blk_init&lt;/span&gt;" style="rounded=0;whiteSpace=wrap;html=1;fillColor=none;gradientColor=none;align=left;strokeWidth=1;" parent="1" vertex="1">
          <mxGeometry x="30" y="600" width="130" height="60" as="geometry" />
        </mxCell>
        <mxCell id="2YFqyYWapaVs9yzSWr-e-15" value="&lt;div style=&quot;color: rgb(0 , 0 , 0) ; background-color: rgb(255 , 255 , 255) ; font-family: &amp;#34;droid sans mono&amp;#34; , monospace , monospace , &amp;#34;droid sans fallback&amp;#34; ; font-weight: normal ; font-size: 18px ; line-height: 24px&quot;&gt;&lt;br&gt;&lt;/div&gt;" style="text;whiteSpace=wrap;html=1;strokeWidth=1;" parent="1" vertex="1">
          <mxGeometry x="260" y="570" width="420" height="40" as="geometry" />
        </mxCell>
        <mxCell id="2YFqyYWapaVs9yzSWr-e-16" value="&lt;span style=&quot;font-family: &amp;#34;droid sans mono&amp;#34; , monospace , monospace , &amp;#34;droid sans fallback&amp;#34; ; font-size: 18px ; background-color: rgb(255 , 255 , 255)&quot;&gt;register_blkdev(&lt;/span&gt;&lt;span style=&quot;font-family: &amp;#34;droid sans mono&amp;#34; , monospace , monospace , &amp;#34;droid sans fallback&amp;#34; ; font-size: 18px ; background-color: rgb(255 , 255 , 255) ; color: rgb(255 , 0 , 0)&quot;&gt;MMC_BLOCK_MAJOR&lt;/span&gt;&lt;span style=&quot;font-family: &amp;#34;droid sans mono&amp;#34; , monospace , monospace , &amp;#34;droid sans fallback&amp;#34; ; font-size: 18px ; background-color: rgb(255 , 255 , 255)&quot;&gt;,&amp;nbsp;&lt;/span&gt;&lt;span style=&quot;font-family: &amp;#34;droid sans mono&amp;#34; , monospace , monospace , &amp;#34;droid sans fallback&amp;#34; ; font-size: 18px ; background-color: rgb(255 , 255 , 255) ; color: rgb(163 , 21 , 21)&quot;&gt;&quot;mmc&quot;&lt;/span&gt;&lt;span style=&quot;font-family: &amp;#34;droid sans mono&amp;#34; , monospace , monospace , &amp;#34;droid sans fallback&amp;#34; ; font-size: 18px ; background-color: rgb(255 , 255 , 255)&quot;&gt;);&lt;/span&gt;" style="rounded=0;whiteSpace=wrap;html=1;fillColor=none;gradientColor=none;align=left;strokeWidth=1;" parent="1" vertex="1">
          <mxGeometry x="260" y="550" width="400" height="60" as="geometry" />
        </mxCell>
        <mxCell id="2YFqyYWapaVs9yzSWr-e-23" style="edgeStyle=orthogonalEdgeStyle;rounded=0;orthogonalLoop=1;jettySize=auto;html=1;entryX=0;entryY=0.5;entryDx=0;entryDy=0;strokeWidth=1;" parent="1" source="2YFqyYWapaVs9yzSWr-e-17" target="2YFqyYWapaVs9yzSWr-e-21" edge="1">
          <mxGeometry relative="1" as="geometry" />
        </mxCell>
        <mxCell id="2YFqyYWapaVs9yzSWr-e-17" value="&lt;div style=&quot;background-color: rgb(255 , 255 , 255) ; font-family: &amp;#34;droid sans mono&amp;#34; , monospace , monospace , &amp;#34;droid sans fallback&amp;#34; ; font-size: 18px ; line-height: 24px&quot;&gt;mmc_register_driver&lt;/div&gt;" style="rounded=0;whiteSpace=wrap;html=1;fillColor=none;gradientColor=none;align=left;strokeWidth=1;" parent="1" vertex="1">
          <mxGeometry x="260" y="660" width="190" height="60" as="geometry" />
        </mxCell>
        <mxCell id="2YFqyYWapaVs9yzSWr-e-29" style="edgeStyle=orthogonalEdgeStyle;rounded=0;orthogonalLoop=1;jettySize=auto;html=1;entryX=0;entryY=0.5;entryDx=0;entryDy=0;strokeWidth=1;" parent="1" source="2YFqyYWapaVs9yzSWr-e-21" target="2YFqyYWapaVs9yzSWr-e-25" edge="1">
          <mxGeometry relative="1" as="geometry" />
        </mxCell>
        <mxCell id="2YFqyYWapaVs9yzSWr-e-30" style="edgeStyle=orthogonalEdgeStyle;rounded=0;orthogonalLoop=1;jettySize=auto;html=1;entryX=0;entryY=0.5;entryDx=0;entryDy=0;strokeWidth=1;" parent="1" source="2YFqyYWapaVs9yzSWr-e-21" target="2YFqyYWapaVs9yzSWr-e-28" edge="1">
          <mxGeometry relative="1" as="geometry" />
        </mxCell>
        <mxCell id="2YFqyYWapaVs9yzSWr-e-21" value="&lt;span style=&quot;font-family: &amp;#34;droid sans mono&amp;#34; , monospace , monospace , &amp;#34;droid sans fallback&amp;#34; ; font-size: 18px ; background-color: rgb(255 , 255 , 255)&quot;&gt;mmc_blk_probe&lt;/span&gt;" style="rounded=0;whiteSpace=wrap;html=1;fillColor=none;gradientColor=none;align=left;strokeWidth=1;" parent="1" vertex="1">
          <mxGeometry x="510" y="660" width="150" height="60" as="geometry" />
        </mxCell>
        <mxCell id="72B8_UldQrA-lnPJ2LUA-35" style="edgeStyle=orthogonalEdgeStyle;rounded=0;orthogonalLoop=1;jettySize=auto;html=1;entryX=0;entryY=0.5;entryDx=0;entryDy=0;strokeWidth=1;" parent="1" source="2YFqyYWapaVs9yzSWr-e-25" target="72B8_UldQrA-lnPJ2LUA-29" edge="1">
          <mxGeometry relative="1" as="geometry" />
        </mxCell>
        <mxCell id="2YFqyYWapaVs9yzSWr-e-25" value="&lt;span style=&quot;font-family: &amp;#34;droid sans mono&amp;#34; , monospace , monospace , &amp;#34;droid sans fallback&amp;#34; ; font-size: 18px ; background-color: rgb(255 , 255 , 255)&quot;&gt;mmc_blk_alloc&lt;/span&gt;" style="rounded=0;whiteSpace=wrap;html=1;fillColor=none;gradientColor=none;align=left;strokeWidth=1;" parent="1" vertex="1">
          <mxGeometry x="760" y="590" width="140" height="60" as="geometry" />
        </mxCell>
        <mxCell id="2YFqyYWapaVs9yzSWr-e-33" style="edgeStyle=orthogonalEdgeStyle;rounded=0;orthogonalLoop=1;jettySize=auto;html=1;entryX=0;entryY=0.5;entryDx=0;entryDy=0;strokeWidth=1;" parent="1" source="2YFqyYWapaVs9yzSWr-e-28" target="2YFqyYWapaVs9yzSWr-e-32" edge="1">
          <mxGeometry relative="1" as="geometry" />
        </mxCell>
        <mxCell id="2YFqyYWapaVs9yzSWr-e-28" value="&lt;span style=&quot;font-family: &amp;#34;droid sans mono&amp;#34; , monospace , monospace , &amp;#34;droid sans fallback&amp;#34; ; font-size: 18px ; background-color: rgb(255 , 255 , 255)&quot;&gt;mmc_add_disk&lt;/span&gt;" style="rounded=0;whiteSpace=wrap;html=1;fillColor=none;gradientColor=none;align=left;strokeWidth=1;" parent="1" vertex="1">
          <mxGeometry x="760" y="820" width="140" height="60" as="geometry" />
        </mxCell>
        <mxCell id="72B8_UldQrA-lnPJ2LUA-5" style="edgeStyle=orthogonalEdgeStyle;rounded=0;orthogonalLoop=1;jettySize=auto;html=1;entryX=0;entryY=0.5;entryDx=0;entryDy=0;strokeWidth=1;" parent="1" source="2YFqyYWapaVs9yzSWr-e-32" target="72B8_UldQrA-lnPJ2LUA-2" edge="1">
          <mxGeometry relative="1" as="geometry" />
        </mxCell>
        <mxCell id="72B8_UldQrA-lnPJ2LUA-13" style="edgeStyle=orthogonalEdgeStyle;rounded=0;orthogonalLoop=1;jettySize=auto;html=1;entryX=0;entryY=0.5;entryDx=0;entryDy=0;strokeWidth=1;" parent="1" source="2YFqyYWapaVs9yzSWr-e-32" target="72B8_UldQrA-lnPJ2LUA-12" edge="1">
          <mxGeometry relative="1" as="geometry" />
        </mxCell>
        <mxCell id="72B8_UldQrA-lnPJ2LUA-16" style="edgeStyle=orthogonalEdgeStyle;rounded=0;orthogonalLoop=1;jettySize=auto;html=1;entryX=0;entryY=0.5;entryDx=0;entryDy=0;strokeWidth=1;" parent="1" source="2YFqyYWapaVs9yzSWr-e-32" target="72B8_UldQrA-lnPJ2LUA-15" edge="1">
          <mxGeometry relative="1" as="geometry" />
        </mxCell>
        <mxCell id="72B8_UldQrA-lnPJ2LUA-18" style="edgeStyle=orthogonalEdgeStyle;rounded=0;orthogonalLoop=1;jettySize=auto;html=1;entryX=0;entryY=0.5;entryDx=0;entryDy=0;strokeWidth=1;" parent="1" source="2YFqyYWapaVs9yzSWr-e-32" target="72B8_UldQrA-lnPJ2LUA-17" edge="1">
          <mxGeometry relative="1" as="geometry" />
        </mxCell>
        <mxCell id="2YFqyYWapaVs9yzSWr-e-32" value="&lt;span style=&quot;font-family: &amp;#34;droid sans mono&amp;#34; , monospace , monospace , &amp;#34;droid sans fallback&amp;#34; ; font-size: 18px ; background-color: rgb(255 , 255 , 255)&quot;&gt;add_disk&lt;/span&gt;" style="rounded=0;whiteSpace=wrap;html=1;fillColor=none;gradientColor=none;align=left;strokeWidth=1;" parent="1" vertex="1">
          <mxGeometry x="1175" y="820" width="89" height="60" as="geometry" />
        </mxCell>
        <mxCell id="72B8_UldQrA-lnPJ2LUA-6" style="edgeStyle=orthogonalEdgeStyle;rounded=0;orthogonalLoop=1;jettySize=auto;html=1;entryX=0;entryY=0.5;entryDx=0;entryDy=0;strokeWidth=1;" parent="1" source="72B8_UldQrA-lnPJ2LUA-2" target="72B8_UldQrA-lnPJ2LUA-4" edge="1">
          <mxGeometry relative="1" as="geometry" />
        </mxCell>
        <mxCell id="72B8_UldQrA-lnPJ2LUA-2" value="&lt;span style=&quot;font-family: &amp;#34;droid sans mono&amp;#34; , monospace , monospace , &amp;#34;droid sans fallback&amp;#34; ; font-size: 18px ; text-align: left ; background-color: rgb(255 , 255 , 255)&quot;&gt;disk_alloc_events&lt;/span&gt;" style="rounded=0;whiteSpace=wrap;html=1;strokeWidth=1;" parent="1" vertex="1">
          <mxGeometry x="1410" y="755" width="170" height="60" as="geometry" />
        </mxCell>
        <mxCell id="72B8_UldQrA-lnPJ2LUA-9" style="edgeStyle=orthogonalEdgeStyle;rounded=0;orthogonalLoop=1;jettySize=auto;html=1;entryX=0;entryY=0.5;entryDx=0;entryDy=0;dashed=1;strokeWidth=1;" parent="1" source="72B8_UldQrA-lnPJ2LUA-4" target="72B8_UldQrA-lnPJ2LUA-8" edge="1">
          <mxGeometry relative="1" as="geometry" />
        </mxCell>
        <mxCell id="72B8_UldQrA-lnPJ2LUA-4" value="&lt;span style=&quot;font-family: &amp;#34;droid sans mono&amp;#34; , monospace , monospace , &amp;#34;droid sans fallback&amp;#34; ; font-size: 18px ; text-align: left ; background-color: rgb(255 , 255 , 255)&quot;&gt;disk_check_events&lt;/span&gt;" style="rounded=0;whiteSpace=wrap;html=1;strokeWidth=1;" parent="1" vertex="1">
          <mxGeometry x="1635" y="755" width="170" height="60" as="geometry" />
        </mxCell>
        <mxCell id="72B8_UldQrA-lnPJ2LUA-8" value="&lt;span style=&quot;font-family: &amp;#34;droid sans mono&amp;#34; , monospace , monospace , &amp;#34;droid sans fallback&amp;#34; ; font-size: 18px ; text-align: left ; background-color: rgb(255 , 255 , 255)&quot;&gt;disk-&amp;gt;fops-&amp;gt;check_events&lt;/span&gt;" style="rounded=0;whiteSpace=wrap;html=1;strokeWidth=1;" parent="1" vertex="1">
          <mxGeometry x="1890" y="755" width="240" height="60" as="geometry" />
        </mxCell>
        <mxCell id="72B8_UldQrA-lnPJ2LUA-10" value="&lt;div style=&quot;background-color: rgb(255 , 255 , 255) ; font-family: &amp;#34;droid sans mono&amp;#34; , monospace , monospace , &amp;#34;droid sans fallback&amp;#34; ; font-size: 18px ; line-height: 24px&quot;&gt;dwork&lt;/div&gt;" style="text;html=1;align=center;verticalAlign=middle;resizable=0;points=[];autosize=1;strokeColor=none;strokeWidth=1;" parent="1" vertex="1">
          <mxGeometry x="1820" y="750" width="70" height="30" as="geometry" />
        </mxCell>
        <mxCell id="72B8_UldQrA-lnPJ2LUA-12" value="&lt;span style=&quot;font-family: &amp;#34;droid sans mono&amp;#34; , monospace , monospace , &amp;#34;droid sans fallback&amp;#34; ; font-size: 18px ; text-align: left ; background-color: rgb(255 , 255 , 255)&quot;&gt;register_disk&lt;/span&gt;" style="rounded=0;whiteSpace=wrap;html=1;strokeWidth=1;" parent="1" vertex="1">
          <mxGeometry x="1410" y="850" width="130" height="60" as="geometry" />
        </mxCell>
        <mxCell id="72B8_UldQrA-lnPJ2LUA-15" value="&lt;span style=&quot;font-family: &amp;#34;droid sans mono&amp;#34; , monospace , monospace , &amp;#34;droid sans fallback&amp;#34; ; font-size: 18px ; text-align: left ; background-color: rgb(255 , 255 , 255)&quot;&gt;disk_add_events&lt;/span&gt;" style="rounded=0;whiteSpace=wrap;html=1;strokeWidth=1;" parent="1" vertex="1">
          <mxGeometry x="1410" y="1020" width="150" height="60" as="geometry" />
        </mxCell>
        <mxCell id="72B8_UldQrA-lnPJ2LUA-17" value="&lt;div style=&quot;background-color: rgb(255 , 255 , 255) ; font-family: &amp;#34;droid sans mono&amp;#34; , monospace , monospace , &amp;#34;droid sans fallback&amp;#34; ; font-size: 18px ; line-height: 24px&quot;&gt;blk_register_queue&lt;/div&gt;" style="rounded=0;whiteSpace=wrap;html=1;strokeWidth=1;" parent="1" vertex="1">
          <mxGeometry x="1410" y="930" width="165" height="60" as="geometry" />
        </mxCell>
        <mxCell id="72B8_UldQrA-lnPJ2LUA-25" style="edgeStyle=orthogonalEdgeStyle;rounded=0;orthogonalLoop=1;jettySize=auto;html=1;entryX=0;entryY=0.5;entryDx=0;entryDy=0;strokeWidth=1;" parent="1" source="72B8_UldQrA-lnPJ2LUA-19" target="72B8_UldQrA-lnPJ2LUA-21" edge="1">
          <mxGeometry relative="1" as="geometry" />
        </mxCell>
        <mxCell id="72B8_UldQrA-lnPJ2LUA-26" style="edgeStyle=orthogonalEdgeStyle;rounded=0;orthogonalLoop=1;jettySize=auto;html=1;entryX=0;entryY=0.5;entryDx=0;entryDy=0;strokeWidth=1;" parent="1" source="72B8_UldQrA-lnPJ2LUA-19" target="72B8_UldQrA-lnPJ2LUA-24" edge="1">
          <mxGeometry relative="1" as="geometry" />
        </mxCell>
        <mxCell id="72B8_UldQrA-lnPJ2LUA-19" value="&lt;div style=&quot;background-color: rgb(255 , 255 , 255) ; font-family: &amp;#34;droid sans mono&amp;#34; , monospace , monospace , &amp;#34;droid sans fallback&amp;#34; ; font-size: 18px ; line-height: 24px&quot;&gt;mmc_start_host&lt;/div&gt;" style="rounded=0;whiteSpace=wrap;html=1;strokeWidth=1;" parent="1" vertex="1">
          <mxGeometry x="510" y="350" width="150" height="60" as="geometry" />
        </mxCell>
        <mxCell id="72B8_UldQrA-lnPJ2LUA-21" value="&lt;div style=&quot;background-color: rgb(255 , 255 , 255) ; font-family: &amp;#34;droid sans mono&amp;#34; , monospace , monospace , &amp;#34;droid sans fallback&amp;#34; ; font-size: 18px ; line-height: 24px&quot;&gt;mmc_gpiod_request_cd_irq&lt;/div&gt;" style="rounded=0;whiteSpace=wrap;html=1;strokeWidth=1;" parent="1" vertex="1">
          <mxGeometry x="770" y="290" width="250" height="60" as="geometry" />
        </mxCell>
        <mxCell id="72B8_UldQrA-lnPJ2LUA-24" value="&lt;div style=&quot;background-color: rgb(255 , 255 , 255) ; font-family: &amp;#34;droid sans mono&amp;#34; , monospace , monospace , &amp;#34;droid sans fallback&amp;#34; ; font-size: 18px ; line-height: 24px&quot;&gt;_mmc_detect_change&lt;/div&gt;" style="rounded=0;whiteSpace=wrap;html=1;strokeWidth=1;" parent="1" vertex="1">
          <mxGeometry x="770" y="390" width="210" height="60" as="geometry" />
        </mxCell>
        <mxCell id="72B8_UldQrA-lnPJ2LUA-33" style="edgeStyle=orthogonalEdgeStyle;rounded=0;orthogonalLoop=1;jettySize=auto;html=1;entryX=0;entryY=0.5;entryDx=0;entryDy=0;strokeWidth=1;" parent="1" source="72B8_UldQrA-lnPJ2LUA-29" target="72B8_UldQrA-lnPJ2LUA-31" edge="1">
          <mxGeometry relative="1" as="geometry" />
        </mxCell>
        <mxCell id="72B8_UldQrA-lnPJ2LUA-34" style="edgeStyle=orthogonalEdgeStyle;rounded=0;orthogonalLoop=1;jettySize=auto;html=1;entryX=0;entryY=0.5;entryDx=0;entryDy=0;strokeWidth=1;" parent="1" source="72B8_UldQrA-lnPJ2LUA-29" target="72B8_UldQrA-lnPJ2LUA-32" edge="1">
          <mxGeometry relative="1" as="geometry" />
        </mxCell>
        <mxCell id="72B8_UldQrA-lnPJ2LUA-29" value="&lt;div style=&quot;background-color: rgb(255 , 255 , 255) ; font-family: &amp;#34;droid sans mono&amp;#34; , monospace , monospace , &amp;#34;droid sans fallback&amp;#34; ; font-size: 18px ; line-height: 24px&quot;&gt;mmc_blk_alloc_req&lt;/div&gt;" style="rounded=0;whiteSpace=wrap;html=1;strokeWidth=1;" parent="1" vertex="1">
          <mxGeometry x="940" y="590" width="180" height="60" as="geometry" />
        </mxCell>
        <mxCell id="72B8_UldQrA-lnPJ2LUA-31" value="&lt;div style=&quot;background-color: rgb(255 , 255 , 255) ; font-family: &amp;#34;droid sans mono&amp;#34; , monospace , monospace , &amp;#34;droid sans fallback&amp;#34; ; font-size: 18px ; line-height: 24px&quot;&gt;alloc_disk&lt;/div&gt;" style="rounded=0;whiteSpace=wrap;html=1;strokeWidth=1;" parent="1" vertex="1">
          <mxGeometry x="1175" y="470" width="99" height="60" as="geometry" />
        </mxCell>
        <mxCell id="72B8_UldQrA-lnPJ2LUA-38" style="edgeStyle=orthogonalEdgeStyle;rounded=0;orthogonalLoop=1;jettySize=auto;html=1;entryX=0;entryY=0.5;entryDx=0;entryDy=0;dashed=1;strokeWidth=1;" parent="1" source="72B8_UldQrA-lnPJ2LUA-32" target="72B8_UldQrA-lnPJ2LUA-37" edge="1">
          <mxGeometry relative="1" as="geometry" />
        </mxCell>
        <mxCell id="72B8_UldQrA-lnPJ2LUA-43" style="edgeStyle=orthogonalEdgeStyle;rounded=0;orthogonalLoop=1;jettySize=auto;html=1;entryX=0;entryY=0.5;entryDx=0;entryDy=0;strokeWidth=1;" parent="1" source="72B8_UldQrA-lnPJ2LUA-32" target="72B8_UldQrA-lnPJ2LUA-41" edge="1">
          <mxGeometry relative="1" as="geometry" />
        </mxCell>
        <mxCell id="72B8_UldQrA-lnPJ2LUA-32" value="&lt;div style=&quot;background-color: rgb(255 , 255 , 255) ; font-family: &amp;#34;droid sans mono&amp;#34; , monospace , monospace , &amp;#34;droid sans fallback&amp;#34; ; font-size: 18px ; line-height: 24px&quot;&gt;&lt;div&gt;mmc_init_queue&lt;/div&gt;&lt;/div&gt;" style="rounded=0;whiteSpace=wrap;html=1;strokeWidth=1;" parent="1" vertex="1">
          <mxGeometry x="1175" y="640" width="155" height="60" as="geometry" />
        </mxCell>
        <mxCell id="72B8_UldQrA-lnPJ2LUA-37" value="&lt;div style=&quot;background-color: rgb(255 , 255 , 255) ; font-family: &amp;#34;droid sans mono&amp;#34; , monospace , monospace , &amp;#34;droid sans fallback&amp;#34; ; font-size: 18px ; line-height: 24px&quot;&gt;mmc_queue_thread&lt;/div&gt;" style="ellipse;whiteSpace=wrap;html=1;strokeWidth=1;" parent="1" vertex="1">
          <mxGeometry x="1410" y="630" width="190" height="80" as="geometry" />
        </mxCell>
        <mxCell id="72B8_UldQrA-lnPJ2LUA-45" style="edgeStyle=orthogonalEdgeStyle;rounded=0;orthogonalLoop=1;jettySize=auto;html=1;entryX=0;entryY=0.5;entryDx=0;entryDy=0;strokeWidth=1;" parent="1" source="72B8_UldQrA-lnPJ2LUA-41" target="72B8_UldQrA-lnPJ2LUA-44" edge="1">
          <mxGeometry relative="1" as="geometry" />
        </mxCell>
        <mxCell id="72B8_UldQrA-lnPJ2LUA-41" value="&lt;span style=&quot;font-family: &amp;#34;droid sans mono&amp;#34; , monospace , monospace , &amp;#34;droid sans fallback&amp;#34; ; font-size: 18px ; text-align: left ; background-color: rgb(255 , 255 , 255)&quot;&gt;blk_init_queue&lt;/span&gt;" style="rounded=0;whiteSpace=wrap;html=1;strokeWidth=1;" parent="1" vertex="1">
          <mxGeometry x="1410" y="524.5" width="140" height="60" as="geometry" />
        </mxCell>
        <mxCell id="72B8_UldQrA-lnPJ2LUA-49" style="edgeStyle=orthogonalEdgeStyle;rounded=0;orthogonalLoop=1;jettySize=auto;html=1;strokeWidth=1;" parent="1" source="72B8_UldQrA-lnPJ2LUA-44" target="72B8_UldQrA-lnPJ2LUA-48" edge="1">
          <mxGeometry relative="1" as="geometry" />
        </mxCell>
        <mxCell id="72B8_UldQrA-lnPJ2LUA-52" style="edgeStyle=orthogonalEdgeStyle;rounded=0;orthogonalLoop=1;jettySize=auto;html=1;entryX=0;entryY=0.5;entryDx=0;entryDy=0;strokeWidth=1;" parent="1" source="72B8_UldQrA-lnPJ2LUA-44" target="72B8_UldQrA-lnPJ2LUA-46" edge="1">
          <mxGeometry relative="1" as="geometry" />
        </mxCell>
        <mxCell id="72B8_UldQrA-lnPJ2LUA-44" value="&lt;div style=&quot;background-color: rgb(255 , 255 , 255) ; font-family: &amp;#34;droid sans mono&amp;#34; , monospace , monospace , &amp;#34;droid sans fallback&amp;#34; ; font-size: 18px ; line-height: 24px&quot;&gt;blk_init_queue_node&lt;/div&gt;" style="rounded=0;whiteSpace=wrap;html=1;strokeWidth=1;" parent="1" vertex="1">
          <mxGeometry x="1635" y="525" width="185" height="60" as="geometry" />
        </mxCell>
        <mxCell id="72B8_UldQrA-lnPJ2LUA-46" value="&lt;div style=&quot;background-color: rgb(255 , 255 , 255) ; font-family: &amp;#34;droid sans mono&amp;#34; , monospace , monospace , &amp;#34;droid sans fallback&amp;#34; ; font-size: 18px ; line-height: 24px&quot;&gt;blk_alloc_queue_node&lt;/div&gt;" style="rounded=0;whiteSpace=wrap;html=1;strokeWidth=1;" parent="1" vertex="1">
          <mxGeometry x="1890" y="440" width="200" height="60" as="geometry" />
        </mxCell>
        <mxCell id="72B8_UldQrA-lnPJ2LUA-51" style="edgeStyle=orthogonalEdgeStyle;rounded=0;orthogonalLoop=1;jettySize=auto;html=1;strokeWidth=1;" parent="1" source="72B8_UldQrA-lnPJ2LUA-48" target="72B8_UldQrA-lnPJ2LUA-50" edge="1">
          <mxGeometry relative="1" as="geometry" />
        </mxCell>
        <mxCell id="72B8_UldQrA-lnPJ2LUA-48" value="&lt;div style=&quot;background-color: rgb(255 , 255 , 255) ; font-family: &amp;#34;droid sans mono&amp;#34; , monospace , monospace , &amp;#34;droid sans fallback&amp;#34; ; font-size: 18px ; line-height: 24px&quot;&gt;blk_init_allocated_queue&lt;/div&gt;" style="rounded=0;whiteSpace=wrap;html=1;strokeWidth=1;" parent="1" vertex="1">
          <mxGeometry x="1890" y="525" width="230" height="60" as="geometry" />
        </mxCell>
        <mxCell id="72B8_UldQrA-lnPJ2LUA-50" value="&lt;div style=&quot;background-color: rgb(255 , 255 , 255) ; font-family: &amp;#34;droid sans mono&amp;#34; , monospace , monospace , &amp;#34;droid sans fallback&amp;#34; ; font-size: 18px ; line-height: 24px&quot;&gt;elevator_init&lt;/div&gt;" style="rounded=0;whiteSpace=wrap;html=1;strokeWidth=1;" parent="1" vertex="1">
          <mxGeometry x="2180" y="525" width="120" height="60" as="geometry" />
        </mxCell>
        <mxCell id="72B8_UldQrA-lnPJ2LUA-53" value="生成&lt;span style=&quot;background-color: rgb(255 , 255 , 255) ; font-family: &amp;#34;droid sans mono&amp;#34; , monospace , monospace , &amp;#34;droid sans fallback&amp;#34;&quot;&gt;&lt;font style=&quot;font-size: 12px&quot;&gt;request_queue&lt;/font&gt;&lt;/span&gt;" style="text;html=1;align=center;verticalAlign=middle;resizable=0;points=[];autosize=1;strokeColor=none;strokeWidth=1;" parent="1" vertex="1">
          <mxGeometry x="1930" y="410" width="120" height="20" as="geometry" />
        </mxCell>
        <mxCell id="K_OXefUXwWz0F2jkkwNq-3" style="edgeStyle=orthogonalEdgeStyle;rounded=0;orthogonalLoop=1;jettySize=auto;html=1;entryX=0;entryY=0.5;entryDx=0;entryDy=0;strokeWidth=1;" parent="1" source="K_OXefUXwWz0F2jkkwNq-1" target="K_OXefUXwWz0F2jkkwNq-2" edge="1">
          <mxGeometry relative="1" as="geometry" />
        </mxCell>
        <mxCell id="K_OXefUXwWz0F2jkkwNq-1" value="&lt;div style=&quot;background-color: rgb(255 , 255 , 255) ; font-family: &amp;#34;droid sans mono&amp;#34; , monospace , monospace , &amp;#34;droid sans fallback&amp;#34; ; font-size: 18px ; line-height: 24px&quot;&gt;init_vfat_fs&lt;/div&gt;" style="rounded=0;whiteSpace=wrap;html=1;strokeWidth=1;" parent="1" vertex="1">
          <mxGeometry x="20" y="1150" width="120" height="60" as="geometry" />
        </mxCell>
        <mxCell id="K_OXefUXwWz0F2jkkwNq-8" style="edgeStyle=orthogonalEdgeStyle;rounded=0;orthogonalLoop=1;jettySize=auto;html=1;entryX=0;entryY=0.5;entryDx=0;entryDy=0;strokeWidth=1;" parent="1" source="K_OXefUXwWz0F2jkkwNq-2" target="K_OXefUXwWz0F2jkkwNq-7" edge="1">
          <mxGeometry relative="1" as="geometry" />
        </mxCell>
        <mxCell id="K_OXefUXwWz0F2jkkwNq-2" value="&lt;div style=&quot;background-color: rgb(255 , 255 , 255) ; font-family: &amp;#34;droid sans mono&amp;#34; , monospace , monospace , &amp;#34;droid sans fallback&amp;#34; ; font-size: 18px ; line-height: 24px&quot;&gt;register_filesystem&lt;/div&gt;" style="rounded=0;whiteSpace=wrap;html=1;strokeWidth=1;" parent="1" vertex="1">
          <mxGeometry x="321" y="1150" width="166" height="60" as="geometry" />
        </mxCell>
        <mxCell id="K_OXefUXwWz0F2jkkwNq-4" value="&lt;div style=&quot;background-color: rgb(255 , 255 , 255) ; font-family: &amp;#34;droid sans mono&amp;#34; , monospace , monospace , &amp;#34;droid sans fallback&amp;#34; ; font-size: 18px ; line-height: 24px&quot;&gt;vfat_fs_type&lt;/div&gt;" style="text;html=1;align=center;verticalAlign=middle;resizable=0;points=[];autosize=1;strokeColor=none;strokeWidth=1;" parent="1" vertex="1">
          <mxGeometry x="180" y="1140" width="120" height="30" as="geometry" />
        </mxCell>
        <mxCell id="K_OXefUXwWz0F2jkkwNq-52" style="edgeStyle=orthogonalEdgeStyle;rounded=0;orthogonalLoop=1;jettySize=auto;html=1;entryX=0;entryY=0.5;entryDx=0;entryDy=0;fontSize=12;strokeWidth=1;exitX=1;exitY=0.5;exitDx=0;exitDy=0;dashed=1;" parent="1" source="K_OXefUXwWz0F2jkkwNq-7" target="K_OXefUXwWz0F2jkkwNq-42" edge="1">
          <mxGeometry relative="1" as="geometry" />
        </mxCell>
        <mxCell id="K_OXefUXwWz0F2jkkwNq-5" value="&lt;div style=&quot;color: rgb(0 , 0 , 0) ; background-color: rgb(255 , 255 , 255) ; font-family: &amp;#34;droid sans mono&amp;#34; , monospace , monospace , &amp;#34;droid sans fallback&amp;#34; ; font-weight: normal ; font-size: 18px ; line-height: 24px&quot;&gt;&lt;br&gt;&lt;/div&gt;" style="text;whiteSpace=wrap;html=1;strokeWidth=1;" parent="1" vertex="1">
          <mxGeometry x="620" y="1130" width="130" height="40" as="geometry" />
        </mxCell>
        <mxCell id="K_OXefUXwWz0F2jkkwNq-7" value="&lt;span style=&quot;font-family: &amp;#34;droid sans mono&amp;#34; , monospace , monospace , &amp;#34;droid sans fallback&amp;#34; ; font-size: 18px ; text-align: left ; background-color: rgb(255 , 255 , 255)&quot;&gt;file_systems&lt;/span&gt;" style="shape=process;whiteSpace=wrap;html=1;backgroundOutline=1;strokeWidth=1;" parent="1" vertex="1">
          <mxGeometry x="560" y="1150" width="150" height="60" as="geometry" />
        </mxCell>
        <mxCell id="K_OXefUXwWz0F2jkkwNq-9" value="注册VFAT文件系统/filesystems.c" style="text;html=1;align=center;verticalAlign=middle;resizable=0;points=[];autosize=1;strokeColor=none;strokeWidth=1;" parent="1" vertex="1">
          <mxGeometry x="20" y="1110" width="190" height="20" as="geometry" />
        </mxCell>
        <mxCell id="K_OXefUXwWz0F2jkkwNq-10" value="mount挂载VFAT文件系统/init.mt8167.rc" style="text;html=1;align=center;verticalAlign=middle;resizable=0;points=[];autosize=1;strokeColor=none;strokeWidth=1;" parent="1" vertex="1">
          <mxGeometry x="10" y="1264" width="230" height="20" as="geometry" />
        </mxCell>
        <mxCell id="K_OXefUXwWz0F2jkkwNq-14" style="edgeStyle=orthogonalEdgeStyle;rounded=0;orthogonalLoop=1;jettySize=auto;html=1;entryX=0;entryY=0.5;entryDx=0;entryDy=0;strokeWidth=1;" parent="1" source="K_OXefUXwWz0F2jkkwNq-12" target="K_OXefUXwWz0F2jkkwNq-13" edge="1">
          <mxGeometry relative="1" as="geometry" />
        </mxCell>
        <mxCell id="K_OXefUXwWz0F2jkkwNq-12" value="&lt;span style=&quot;text-align: left&quot;&gt;mount_all /vendor/etc/fstab.mt8167&lt;/span&gt;" style="rounded=0;whiteSpace=wrap;html=1;strokeWidth=1;" parent="1" vertex="1">
          <mxGeometry x="10" y="1315" width="230" height="60" as="geometry" />
        </mxCell>
        <mxCell id="K_OXefUXwWz0F2jkkwNq-16" style="edgeStyle=orthogonalEdgeStyle;rounded=0;orthogonalLoop=1;jettySize=auto;html=1;entryX=0;entryY=0.5;entryDx=0;entryDy=0;strokeWidth=1;" parent="1" source="K_OXefUXwWz0F2jkkwNq-13" target="K_OXefUXwWz0F2jkkwNq-15" edge="1">
          <mxGeometry relative="1" as="geometry" />
        </mxCell>
        <mxCell id="K_OXefUXwWz0F2jkkwNq-13" value="{&quot;mount_all&quot;,&amp;nbsp; {1, kMax, do_mount_all}}," style="rounded=0;whiteSpace=wrap;html=1;strokeWidth=1;" parent="1" vertex="1">
          <mxGeometry x="311" y="1315" width="236" height="60" as="geometry" />
        </mxCell>
        <mxCell id="K_OXefUXwWz0F2jkkwNq-19" style="edgeStyle=orthogonalEdgeStyle;rounded=0;orthogonalLoop=1;jettySize=auto;html=1;entryX=0;entryY=0.5;entryDx=0;entryDy=0;strokeWidth=1;" parent="1" source="K_OXefUXwWz0F2jkkwNq-15" target="K_OXefUXwWz0F2jkkwNq-18" edge="1">
          <mxGeometry relative="1" as="geometry" />
        </mxCell>
        <mxCell id="K_OXefUXwWz0F2jkkwNq-15" value="mount_fstab" style="rounded=0;whiteSpace=wrap;html=1;strokeWidth=1;" parent="1" vertex="1">
          <mxGeometry x="610" y="1315" width="90" height="60" as="geometry" />
        </mxCell>
        <mxCell id="K_OXefUXwWz0F2jkkwNq-21" style="edgeStyle=orthogonalEdgeStyle;rounded=0;orthogonalLoop=1;jettySize=auto;html=1;entryX=0;entryY=0.5;entryDx=0;entryDy=0;fontSize=12;strokeWidth=1;" parent="1" source="K_OXefUXwWz0F2jkkwNq-18" target="K_OXefUXwWz0F2jkkwNq-20" edge="1">
          <mxGeometry relative="1" as="geometry" />
        </mxCell>
        <mxCell id="K_OXefUXwWz0F2jkkwNq-18" value="fs_mgr_mount_all" style="rounded=0;whiteSpace=wrap;html=1;strokeWidth=1;" parent="1" vertex="1">
          <mxGeometry x="770" y="1315" width="120" height="60" as="geometry" />
        </mxCell>
        <mxCell id="K_OXefUXwWz0F2jkkwNq-23" style="edgeStyle=orthogonalEdgeStyle;rounded=0;orthogonalLoop=1;jettySize=auto;html=1;entryX=0;entryY=0.5;entryDx=0;entryDy=0;fontSize=12;strokeWidth=1;" parent="1" source="K_OXefUXwWz0F2jkkwNq-20" target="K_OXefUXwWz0F2jkkwNq-22" edge="1">
          <mxGeometry relative="1" as="geometry" />
        </mxCell>
        <mxCell id="K_OXefUXwWz0F2jkkwNq-20" value="mount_with_alternatives" style="rounded=0;whiteSpace=wrap;html=1;strokeWidth=1;" parent="1" vertex="1">
          <mxGeometry x="950" y="1315" width="150" height="60" as="geometry" />
        </mxCell>
        <mxCell id="K_OXefUXwWz0F2jkkwNq-26" style="edgeStyle=orthogonalEdgeStyle;rounded=0;orthogonalLoop=1;jettySize=auto;html=1;fontSize=12;strokeWidth=1;" parent="1" source="K_OXefUXwWz0F2jkkwNq-22" target="K_OXefUXwWz0F2jkkwNq-25" edge="1">
          <mxGeometry relative="1" as="geometry" />
        </mxCell>
        <mxCell id="K_OXefUXwWz0F2jkkwNq-22" value="__mount" style="whiteSpace=wrap;html=1;fontSize=12;strokeWidth=1;" parent="1" vertex="1">
          <mxGeometry x="1160.5" y="1315" width="89.5" height="60" as="geometry" />
        </mxCell>
        <mxCell id="K_OXefUXwWz0F2jkkwNq-35" style="edgeStyle=orthogonalEdgeStyle;rounded=0;orthogonalLoop=1;jettySize=auto;html=1;entryX=0;entryY=0.5;entryDx=0;entryDy=0;fontSize=12;strokeWidth=1;" parent="1" source="K_OXefUXwWz0F2jkkwNq-25" target="K_OXefUXwWz0F2jkkwNq-33" edge="1">
          <mxGeometry relative="1" as="geometry" />
        </mxCell>
        <mxCell id="K_OXefUXwWz0F2jkkwNq-25" value="mount" style="rounded=0;whiteSpace=wrap;html=1;fontSize=12;strokeWidth=1;" parent="1" vertex="1">
          <mxGeometry x="1310" y="1315" width="90" height="60" as="geometry" />
        </mxCell>
        <mxCell id="K_OXefUXwWz0F2jkkwNq-27" value="&lt;font style=&quot;font-size: 14px&quot;&gt;系统调用&lt;/font&gt;" style="text;html=1;align=center;verticalAlign=middle;resizable=0;points=[];autosize=1;strokeColor=none;fontSize=12;" parent="1" vertex="1">
          <mxGeometry x="1320" y="1284" width="70" height="20" as="geometry" />
        </mxCell>
        <mxCell id="K_OXefUXwWz0F2jkkwNq-31" value="" style="endArrow=none;html=1;fontSize=12;strokeWidth=1;dashed=1;" parent="1" edge="1">
          <mxGeometry width="50" height="50" relative="1" as="geometry">
            <mxPoint x="1430" y="2380" as="sourcePoint" />
            <mxPoint x="1430" y="1210" as="targetPoint" />
          </mxGeometry>
        </mxCell>
        <mxCell id="K_OXefUXwWz0F2jkkwNq-32" value="&lt;b&gt;&lt;font style=&quot;font-size: 14px&quot;&gt;User&lt;/font&gt;&lt;/b&gt;" style="text;html=1;align=center;verticalAlign=middle;resizable=0;points=[];autosize=1;strokeColor=none;fontSize=12;" parent="1" vertex="1">
          <mxGeometry x="1345" y="1244" width="50" height="20" as="geometry" />
        </mxCell>
        <mxCell id="K_OXefUXwWz0F2jkkwNq-39" style="edgeStyle=orthogonalEdgeStyle;rounded=0;orthogonalLoop=1;jettySize=auto;html=1;entryX=0;entryY=0.5;entryDx=0;entryDy=0;fontSize=12;strokeWidth=1;" parent="1" source="K_OXefUXwWz0F2jkkwNq-33" target="K_OXefUXwWz0F2jkkwNq-38" edge="1">
          <mxGeometry relative="1" as="geometry" />
        </mxCell>
        <mxCell id="K_OXefUXwWz0F2jkkwNq-33" value="&lt;font style=&quot;font-size: 18px&quot;&gt;sys_mount&lt;/font&gt;" style="rounded=0;whiteSpace=wrap;html=1;fontSize=12;strokeWidth=1;" parent="1" vertex="1">
          <mxGeometry x="1460" y="1315" width="120" height="60" as="geometry" />
        </mxCell>
        <mxCell id="K_OXefUXwWz0F2jkkwNq-34" value="&lt;font style=&quot;font-size: 14px&quot;&gt;&lt;b&gt;kernel&lt;/b&gt;&lt;/font&gt;" style="text;html=1;align=center;verticalAlign=middle;resizable=0;points=[];autosize=1;strokeColor=none;fontSize=12;" parent="1" vertex="1">
          <mxGeometry x="1480" y="1240" width="60" height="20" as="geometry" />
        </mxCell>
        <mxCell id="K_OXefUXwWz0F2jkkwNq-36" value="&lt;font style=&quot;font-size: 14px&quot;&gt;fs/namespace.c&lt;/font&gt;" style="text;html=1;align=center;verticalAlign=middle;resizable=0;points=[];autosize=1;strokeColor=none;fontSize=12;" parent="1" vertex="1">
          <mxGeometry x="1450" y="1284" width="120" height="20" as="geometry" />
        </mxCell>
        <mxCell id="K_OXefUXwWz0F2jkkwNq-41" style="edgeStyle=orthogonalEdgeStyle;rounded=0;orthogonalLoop=1;jettySize=auto;html=1;entryX=0;entryY=0.5;entryDx=0;entryDy=0;fontSize=12;strokeWidth=1;" parent="1" source="K_OXefUXwWz0F2jkkwNq-38" target="K_OXefUXwWz0F2jkkwNq-40" edge="1">
          <mxGeometry relative="1" as="geometry" />
        </mxCell>
        <mxCell id="K_OXefUXwWz0F2jkkwNq-38" value="&lt;div style=&quot;background-color: rgb(255 , 255 , 255) ; font-family: &amp;#34;droid sans mono&amp;#34; , monospace , monospace , &amp;#34;droid sans fallback&amp;#34; ; font-size: 18px ; line-height: 24px&quot;&gt;do_mount&lt;/div&gt;" style="rounded=0;whiteSpace=wrap;html=1;fontSize=12;strokeWidth=1;" parent="1" vertex="1">
          <mxGeometry x="1634" y="1315" width="120" height="60" as="geometry" />
        </mxCell>
        <mxCell id="K_OXefUXwWz0F2jkkwNq-45" style="edgeStyle=orthogonalEdgeStyle;rounded=0;orthogonalLoop=1;jettySize=auto;html=1;entryX=0;entryY=0.5;entryDx=0;entryDy=0;fontSize=12;strokeWidth=1;" parent="1" source="K_OXefUXwWz0F2jkkwNq-40" target="K_OXefUXwWz0F2jkkwNq-44" edge="1">
          <mxGeometry relative="1" as="geometry" />
        </mxCell>
        <mxCell id="K_OXefUXwWz0F2jkkwNq-49" style="edgeStyle=orthogonalEdgeStyle;rounded=0;orthogonalLoop=1;jettySize=auto;html=1;entryX=0;entryY=0.5;entryDx=0;entryDy=0;fontSize=12;strokeWidth=1;" parent="1" source="K_OXefUXwWz0F2jkkwNq-40" target="K_OXefUXwWz0F2jkkwNq-42" edge="1">
          <mxGeometry relative="1" as="geometry" />
        </mxCell>
        <mxCell id="K_OXefUXwWz0F2jkkwNq-68" style="edgeStyle=orthogonalEdgeStyle;rounded=0;orthogonalLoop=1;jettySize=auto;html=1;entryX=0;entryY=0.5;entryDx=0;entryDy=0;fontSize=12;strokeWidth=1;" parent="1" source="K_OXefUXwWz0F2jkkwNq-40" target="K_OXefUXwWz0F2jkkwNq-67" edge="1">
          <mxGeometry relative="1" as="geometry" />
        </mxCell>
        <mxCell id="K_OXefUXwWz0F2jkkwNq-40" value="&lt;div style=&quot;background-color: rgb(255 , 255 , 255) ; font-family: &amp;#34;droid sans mono&amp;#34; , monospace , monospace , &amp;#34;droid sans fallback&amp;#34; ; font-size: 18px ; line-height: 24px&quot;&gt;do_new_mount&lt;/div&gt;" style="whiteSpace=wrap;html=1;fontSize=12;strokeWidth=1;" parent="1" vertex="1">
          <mxGeometry x="1820" y="1315" width="150" height="60" as="geometry" />
        </mxCell>
        <mxCell id="K_OXefUXwWz0F2jkkwNq-50" style="edgeStyle=orthogonalEdgeStyle;rounded=0;orthogonalLoop=1;jettySize=auto;html=1;entryX=0.461;entryY=0.033;entryDx=0;entryDy=0;entryPerimeter=0;fontSize=12;strokeWidth=1;" parent="1" source="K_OXefUXwWz0F2jkkwNq-42" target="K_OXefUXwWz0F2jkkwNq-44" edge="1">
          <mxGeometry relative="1" as="geometry" />
        </mxCell>
        <mxCell id="K_OXefUXwWz0F2jkkwNq-42" value="&lt;div style=&quot;background-color: rgb(255 , 255 , 255) ; font-family: &amp;#34;droid sans mono&amp;#34; , monospace , monospace , &amp;#34;droid sans fallback&amp;#34; ; font-size: 18px ; line-height: 24px&quot;&gt;get_fs_type&lt;/div&gt;" style="whiteSpace=wrap;html=1;fontSize=12;strokeWidth=1;" parent="1" vertex="1">
          <mxGeometry x="2040" y="1150" width="120" height="60" as="geometry" />
        </mxCell>
        <mxCell id="K_OXefUXwWz0F2jkkwNq-48" style="edgeStyle=orthogonalEdgeStyle;rounded=0;orthogonalLoop=1;jettySize=auto;html=1;entryX=0;entryY=0.5;entryDx=0;entryDy=0;fontSize=12;strokeWidth=1;" parent="1" source="K_OXefUXwWz0F2jkkwNq-44" target="K_OXefUXwWz0F2jkkwNq-47" edge="1">
          <mxGeometry relative="1" as="geometry" />
        </mxCell>
        <mxCell id="K_OXefUXwWz0F2jkkwNq-44" value="&lt;div style=&quot;background-color: rgb(255 , 255 , 255) ; font-family: &amp;#34;droid sans mono&amp;#34; , monospace , monospace , &amp;#34;droid sans fallback&amp;#34; ; font-size: 18px ; line-height: 24px&quot;&gt;vfs_kern_mount&lt;/div&gt;" style="whiteSpace=wrap;html=1;fontSize=12;strokeWidth=1;" parent="1" vertex="1">
          <mxGeometry x="2030" y="1315" width="152" height="60" as="geometry" />
        </mxCell>
        <mxCell id="K_OXefUXwWz0F2jkkwNq-54" style="edgeStyle=orthogonalEdgeStyle;rounded=0;orthogonalLoop=1;jettySize=auto;html=1;fontSize=12;strokeWidth=1;" parent="1" source="K_OXefUXwWz0F2jkkwNq-47" target="K_OXefUXwWz0F2jkkwNq-53" edge="1">
          <mxGeometry relative="1" as="geometry" />
        </mxCell>
        <mxCell id="K_OXefUXwWz0F2jkkwNq-47" value="&lt;div style=&quot;background-color: rgb(255 , 255 , 255) ; font-family: &amp;#34;droid sans mono&amp;#34; , monospace , monospace , &amp;#34;droid sans fallback&amp;#34; ; font-size: 18px ; line-height: 24px&quot;&gt;mount_fs&lt;/div&gt;" style="whiteSpace=wrap;html=1;fontSize=12;strokeWidth=1;" parent="1" vertex="1">
          <mxGeometry x="2240" y="1315" width="120" height="60" as="geometry" />
        </mxCell>
        <mxCell id="K_OXefUXwWz0F2jkkwNq-51" value="&lt;div style=&quot;background-color: rgb(255 , 255 , 255) ; font-family: &amp;#34;droid sans mono&amp;#34; , monospace , monospace , &amp;#34;droid sans fallback&amp;#34; ; font-size: 18px ; line-height: 24px&quot;&gt;file_system_type&lt;/div&gt;" style="text;html=1;align=center;verticalAlign=middle;resizable=0;points=[];autosize=1;strokeColor=none;fontSize=12;" parent="1" vertex="1">
          <mxGeometry x="2100" y="1244" width="160" height="30" as="geometry" />
        </mxCell>
        <mxCell id="K_OXefUXwWz0F2jkkwNq-56" style="edgeStyle=orthogonalEdgeStyle;rounded=0;orthogonalLoop=1;jettySize=auto;html=1;entryX=0;entryY=0.5;entryDx=0;entryDy=0;fontSize=12;strokeWidth=1;" parent="1" source="K_OXefUXwWz0F2jkkwNq-53" target="K_OXefUXwWz0F2jkkwNq-55" edge="1">
          <mxGeometry relative="1" as="geometry" />
        </mxCell>
        <mxCell id="th4No7kTdInj7C2i5F7E-32" style="edgeStyle=orthogonalEdgeStyle;rounded=0;orthogonalLoop=1;jettySize=auto;html=1;entryX=0;entryY=0.5;entryDx=0;entryDy=0;fontSize=12;" parent="1" source="K_OXefUXwWz0F2jkkwNq-53" target="th4No7kTdInj7C2i5F7E-31" edge="1">
          <mxGeometry relative="1" as="geometry" />
        </mxCell>
        <mxCell id="th4No7kTdInj7C2i5F7E-61" style="edgeStyle=orthogonalEdgeStyle;rounded=0;orthogonalLoop=1;jettySize=auto;html=1;entryX=0.083;entryY=0.5;entryDx=0;entryDy=0;entryPerimeter=0;fontSize=12;" parent="1" source="K_OXefUXwWz0F2jkkwNq-53" target="th4No7kTdInj7C2i5F7E-60" edge="1">
          <mxGeometry relative="1" as="geometry" />
        </mxCell>
        <mxCell id="K_OXefUXwWz0F2jkkwNq-53" value="&lt;div style=&quot;background-color: rgb(255 , 255 , 255) ; font-family: &amp;#34;droid sans mono&amp;#34; , monospace , monospace , &amp;#34;droid sans fallback&amp;#34; ; font-size: 18px ; line-height: 24px&quot;&gt;type-&amp;gt;mount&lt;/div&gt;" style="whiteSpace=wrap;html=1;fontSize=12;strokeWidth=1;" parent="1" vertex="1">
          <mxGeometry x="2420" y="1315" width="120" height="60" as="geometry" />
        </mxCell>
        <mxCell id="K_OXefUXwWz0F2jkkwNq-58" style="edgeStyle=orthogonalEdgeStyle;rounded=0;orthogonalLoop=1;jettySize=auto;html=1;entryX=0;entryY=0.5;entryDx=0;entryDy=0;fontSize=12;strokeWidth=1;" parent="1" source="K_OXefUXwWz0F2jkkwNq-55" target="K_OXefUXwWz0F2jkkwNq-57" edge="1">
          <mxGeometry relative="1" as="geometry" />
        </mxCell>
        <mxCell id="K_OXefUXwWz0F2jkkwNq-55" value="&lt;div style=&quot;background-color: rgb(255 , 255 , 255) ; font-family: &amp;#34;droid sans mono&amp;#34; , monospace , monospace , &amp;#34;droid sans fallback&amp;#34; ; font-size: 18px ; line-height: 24px&quot;&gt;vfat_mount&lt;/div&gt;" style="whiteSpace=wrap;html=1;fontSize=12;strokeWidth=1;" parent="1" vertex="1">
          <mxGeometry x="2580" y="1150" width="120" height="60" as="geometry" />
        </mxCell>
        <mxCell id="K_OXefUXwWz0F2jkkwNq-61" style="edgeStyle=orthogonalEdgeStyle;rounded=0;orthogonalLoop=1;jettySize=auto;html=1;entryX=0;entryY=0.5;entryDx=0;entryDy=0;fontSize=12;strokeWidth=1;" parent="1" source="K_OXefUXwWz0F2jkkwNq-57" target="K_OXefUXwWz0F2jkkwNq-60" edge="1">
          <mxGeometry relative="1" as="geometry" />
        </mxCell>
        <mxCell id="th4No7kTdInj7C2i5F7E-7" style="edgeStyle=orthogonalEdgeStyle;rounded=0;orthogonalLoop=1;jettySize=auto;html=1;entryX=0;entryY=0.5;entryDx=0;entryDy=0;" parent="1" source="K_OXefUXwWz0F2jkkwNq-57" target="th4No7kTdInj7C2i5F7E-6" edge="1">
          <mxGeometry relative="1" as="geometry" />
        </mxCell>
        <mxCell id="th4No7kTdInj7C2i5F7E-38" style="edgeStyle=orthogonalEdgeStyle;rounded=0;orthogonalLoop=1;jettySize=auto;html=1;entryX=0;entryY=0.5;entryDx=0;entryDy=0;fontSize=12;" parent="1" source="K_OXefUXwWz0F2jkkwNq-57" target="th4No7kTdInj7C2i5F7E-37" edge="1">
          <mxGeometry relative="1" as="geometry" />
        </mxCell>
        <mxCell id="K_OXefUXwWz0F2jkkwNq-57" value="&lt;div style=&quot;background-color: rgb(255 , 255 , 255) ; font-family: &amp;#34;droid sans mono&amp;#34; , monospace , monospace , &amp;#34;droid sans fallback&amp;#34; ; font-size: 18px ; line-height: 24px&quot;&gt;mount_bdev&lt;/div&gt;" style="whiteSpace=wrap;html=1;fontSize=12;strokeWidth=1;" parent="1" vertex="1">
          <mxGeometry x="2770" y="1150" width="120" height="60" as="geometry" />
        </mxCell>
        <mxCell id="K_OXefUXwWz0F2jkkwNq-65" style="edgeStyle=orthogonalEdgeStyle;rounded=0;orthogonalLoop=1;jettySize=auto;html=1;entryX=0;entryY=0.5;entryDx=0;entryDy=0;fontSize=12;strokeWidth=1;" parent="1" source="K_OXefUXwWz0F2jkkwNq-60" target="K_OXefUXwWz0F2jkkwNq-64" edge="1">
          <mxGeometry relative="1" as="geometry" />
        </mxCell>
        <mxCell id="K_OXefUXwWz0F2jkkwNq-60" value="&lt;div style=&quot;background-color: rgb(255 , 255 , 255) ; font-family: &amp;#34;droid sans mono&amp;#34; , monospace , monospace , &amp;#34;droid sans fallback&amp;#34; ; font-size: 18px ; line-height: 24px&quot;&gt;vfat_fill_super&lt;/div&gt;" style="rounded=0;whiteSpace=wrap;html=1;fontSize=12;strokeWidth=1;" parent="1" vertex="1">
          <mxGeometry x="2960" y="1150" width="140" height="60" as="geometry" />
        </mxCell>
        <mxCell id="K_OXefUXwWz0F2jkkwNq-75" style="edgeStyle=orthogonalEdgeStyle;rounded=0;orthogonalLoop=1;jettySize=auto;html=1;entryX=0;entryY=0.5;entryDx=0;entryDy=0;fontSize=12;strokeWidth=1;" parent="1" target="K_OXefUXwWz0F2jkkwNq-74" edge="1">
          <mxGeometry relative="1" as="geometry">
            <mxPoint x="3280" y="1180" as="sourcePoint" />
          </mxGeometry>
        </mxCell>
        <mxCell id="K_OXefUXwWz0F2jkkwNq-77" style="edgeStyle=orthogonalEdgeStyle;rounded=0;orthogonalLoop=1;jettySize=auto;html=1;entryX=0;entryY=0.5;entryDx=0;entryDy=0;fontSize=12;strokeWidth=1;" parent="1" target="K_OXefUXwWz0F2jkkwNq-76" edge="1">
          <mxGeometry relative="1" as="geometry">
            <mxPoint x="3280" y="1180" as="sourcePoint" />
          </mxGeometry>
        </mxCell>
        <mxCell id="th4No7kTdInj7C2i5F7E-2" style="edgeStyle=orthogonalEdgeStyle;rounded=0;orthogonalLoop=1;jettySize=auto;html=1;entryX=0;entryY=0.5;entryDx=0;entryDy=0;" parent="1" target="th4No7kTdInj7C2i5F7E-1" edge="1">
          <mxGeometry relative="1" as="geometry">
            <mxPoint x="3280" y="1180" as="sourcePoint" />
          </mxGeometry>
        </mxCell>
        <mxCell id="K_OXefUXwWz0F2jkkwNq-64" value="&lt;div style=&quot;background-color: rgb(255 , 255 , 255) ; font-family: &amp;#34;droid sans mono&amp;#34; , monospace , monospace , &amp;#34;droid sans fallback&amp;#34; ; font-size: 18px ; line-height: 24px&quot;&gt;fat_fill_super&lt;/div&gt;" style="whiteSpace=wrap;html=1;fontSize=12;strokeWidth=1;" parent="1" vertex="1">
          <mxGeometry x="3160" y="1150" width="120" height="60" as="geometry" />
        </mxCell>
        <mxCell id="K_OXefUXwWz0F2jkkwNq-71" style="edgeStyle=orthogonalEdgeStyle;rounded=0;orthogonalLoop=1;jettySize=auto;html=1;entryX=0;entryY=0.5;entryDx=0;entryDy=0;fontSize=12;strokeWidth=1;" parent="1" source="K_OXefUXwWz0F2jkkwNq-67" target="K_OXefUXwWz0F2jkkwNq-69" edge="1">
          <mxGeometry relative="1" as="geometry" />
        </mxCell>
        <mxCell id="K_OXefUXwWz0F2jkkwNq-72" style="edgeStyle=orthogonalEdgeStyle;rounded=0;orthogonalLoop=1;jettySize=auto;html=1;entryX=0;entryY=0.5;entryDx=0;entryDy=0;fontSize=12;strokeWidth=1;" parent="1" source="K_OXefUXwWz0F2jkkwNq-67" target="K_OXefUXwWz0F2jkkwNq-70" edge="1">
          <mxGeometry relative="1" as="geometry" />
        </mxCell>
        <mxCell id="K_OXefUXwWz0F2jkkwNq-67" value="&lt;div style=&quot;background-color: rgb(255 , 255 , 255) ; font-family: &amp;#34;droid sans mono&amp;#34; , monospace , monospace , &amp;#34;droid sans fallback&amp;#34; ; font-size: 18px ; line-height: 24px&quot;&gt;do_add_mount&lt;/div&gt;" style="whiteSpace=wrap;html=1;fontSize=12;strokeWidth=1;" parent="1" vertex="1">
          <mxGeometry x="2040" y="1440" width="150" height="60" as="geometry" />
        </mxCell>
        <mxCell id="K_OXefUXwWz0F2jkkwNq-69" value="&lt;div style=&quot;background-color: rgb(255 , 255 , 255) ; font-family: &amp;#34;droid sans mono&amp;#34; , monospace , monospace , &amp;#34;droid sans fallback&amp;#34; ; font-size: 18px ; line-height: 24px&quot;&gt;lock_mount&lt;/div&gt;" style="whiteSpace=wrap;html=1;fontSize=12;strokeWidth=1;" parent="1" vertex="1">
          <mxGeometry x="2240" y="1440" width="120" height="60" as="geometry" />
        </mxCell>
        <mxCell id="K_OXefUXwWz0F2jkkwNq-70" value="&lt;div style=&quot;background-color: rgb(255 , 255 , 255) ; font-family: &amp;#34;droid sans mono&amp;#34; , monospace , monospace , &amp;#34;droid sans fallback&amp;#34; ; font-size: 18px ; line-height: 24px&quot;&gt;graft_tree&lt;/div&gt;" style="whiteSpace=wrap;html=1;fontSize=12;strokeWidth=1;" parent="1" vertex="1">
          <mxGeometry x="2240" y="1540" width="120" height="60" as="geometry" />
        </mxCell>
        <mxCell id="K_OXefUXwWz0F2jkkwNq-74" value="&lt;div style=&quot;background-color: rgb(255 , 255 , 255) ; font-family: &amp;#34;droid sans mono&amp;#34; , monospace , monospace , &amp;#34;droid sans fallback&amp;#34; ; font-size: 18px ; line-height: 24px&quot;&gt;fat_read_root&lt;/div&gt;" style="whiteSpace=wrap;html=1;fontSize=12;strokeWidth=1;" parent="1" vertex="1">
          <mxGeometry x="3360" y="1224" width="120" height="60" as="geometry" />
        </mxCell>
        <mxCell id="K_OXefUXwWz0F2jkkwNq-76" value="&lt;div style=&quot;background-color: rgb(255 , 255 , 255) ; font-family: &amp;#34;droid sans mono&amp;#34; , monospace , monospace , &amp;#34;droid sans fallback&amp;#34; ; font-size: 18px ; line-height: 24px&quot;&gt;setup(sb)&lt;/div&gt;" style="whiteSpace=wrap;html=1;fontSize=12;strokeWidth=1;" parent="1" vertex="1">
          <mxGeometry x="3360" y="1120" width="120" height="60" as="geometry" />
        </mxCell>
        <mxCell id="K_OXefUXwWz0F2jkkwNq-80" style="edgeStyle=orthogonalEdgeStyle;rounded=0;orthogonalLoop=1;jettySize=auto;html=1;entryX=0;entryY=0.5;entryDx=0;entryDy=0;fontSize=12;strokeWidth=1;" parent="1" source="K_OXefUXwWz0F2jkkwNq-78" target="K_OXefUXwWz0F2jkkwNq-79" edge="1">
          <mxGeometry relative="1" as="geometry" />
        </mxCell>
        <mxCell id="K_OXefUXwWz0F2jkkwNq-78" value="read" style="whiteSpace=wrap;html=1;fontSize=12;strokeWidth=1;" parent="1" vertex="1">
          <mxGeometry x="1307.5" y="2120" width="90" height="60" as="geometry" />
        </mxCell>
        <mxCell id="K_OXefUXwWz0F2jkkwNq-86" style="edgeStyle=orthogonalEdgeStyle;rounded=0;orthogonalLoop=1;jettySize=auto;html=1;entryX=0;entryY=0.5;entryDx=0;entryDy=0;fontSize=12;strokeWidth=1;" parent="1" source="K_OXefUXwWz0F2jkkwNq-79" target="K_OXefUXwWz0F2jkkwNq-82" edge="1">
          <mxGeometry relative="1" as="geometry" />
        </mxCell>
        <mxCell id="K_OXefUXwWz0F2jkkwNq-79" value="&lt;font style=&quot;font-size: 18px&quot;&gt;sys_read&lt;/font&gt;" style="whiteSpace=wrap;html=1;fontSize=12;strokeWidth=1;" parent="1" vertex="1">
          <mxGeometry x="1457.5" y="2120" width="110" height="60" as="geometry" />
        </mxCell>
        <mxCell id="K_OXefUXwWz0F2jkkwNq-81" value="&lt;font style=&quot;font-size: 14px&quot;&gt;fs/read_write.c&lt;/font&gt;" style="text;html=1;align=center;verticalAlign=middle;resizable=0;points=[];autosize=1;strokeColor=none;fontSize=12;" parent="1" vertex="1">
          <mxGeometry x="1462.5" y="2190" width="110" height="20" as="geometry" />
        </mxCell>
        <mxCell id="K_OXefUXwWz0F2jkkwNq-84" style="edgeStyle=orthogonalEdgeStyle;rounded=0;orthogonalLoop=1;jettySize=auto;html=1;entryX=0;entryY=0.5;entryDx=0;entryDy=0;fontSize=12;strokeWidth=1;" parent="1" source="K_OXefUXwWz0F2jkkwNq-82" target="K_OXefUXwWz0F2jkkwNq-83" edge="1">
          <mxGeometry relative="1" as="geometry" />
        </mxCell>
        <mxCell id="K_OXefUXwWz0F2jkkwNq-82" value="&lt;div style=&quot;background-color: rgb(255 , 255 , 255) ; font-family: &amp;#34;droid sans mono&amp;#34; , monospace , monospace , &amp;#34;droid sans fallback&amp;#34; ; font-size: 18px ; line-height: 24px&quot;&gt;vfs_read&lt;/div&gt;" style="whiteSpace=wrap;html=1;fontSize=12;strokeWidth=1;" parent="1" vertex="1">
          <mxGeometry x="1631.5" y="2120" width="120" height="60" as="geometry" />
        </mxCell>
        <mxCell id="K_OXefUXwWz0F2jkkwNq-83" value="" style="whiteSpace=wrap;html=1;fontSize=12;strokeWidth=1;" parent="1" vertex="1">
          <mxGeometry x="1867.5" y="2120" width="120" height="60" as="geometry" />
        </mxCell>
        <mxCell id="K_OXefUXwWz0F2jkkwNq-85" value="&lt;div style=&quot;background-color: rgb(255 , 255 , 255) ; font-family: &amp;#34;droid sans mono&amp;#34; , monospace , monospace , &amp;#34;droid sans fallback&amp;#34; ; line-height: 24px&quot;&gt;file-&amp;gt;f_op-&amp;gt;read&lt;/div&gt;" style="text;html=1;align=center;verticalAlign=middle;resizable=0;points=[];autosize=1;strokeColor=none;fontSize=12;" parent="1" vertex="1">
          <mxGeometry x="1757.5" y="2120" width="110" height="30" as="geometry" />
        </mxCell>
        <mxCell id="K_OXefUXwWz0F2jkkwNq-89" style="edgeStyle=orthogonalEdgeStyle;rounded=0;orthogonalLoop=1;jettySize=auto;html=1;entryX=0;entryY=0.5;entryDx=0;entryDy=0;fontSize=12;strokeWidth=1;" parent="1" source="K_OXefUXwWz0F2jkkwNq-87" target="K_OXefUXwWz0F2jkkwNq-88" edge="1">
          <mxGeometry relative="1" as="geometry" />
        </mxCell>
        <mxCell id="K_OXefUXwWz0F2jkkwNq-87" value="open" style="whiteSpace=wrap;html=1;fontSize=12;strokeWidth=1;" parent="1" vertex="1">
          <mxGeometry x="1307.5" y="1660" width="92.5" height="60" as="geometry" />
        </mxCell>
        <mxCell id="K_OXefUXwWz0F2jkkwNq-92" style="edgeStyle=orthogonalEdgeStyle;rounded=0;orthogonalLoop=1;jettySize=auto;html=1;fontSize=12;strokeWidth=1;" parent="1" source="K_OXefUXwWz0F2jkkwNq-88" target="K_OXefUXwWz0F2jkkwNq-91" edge="1">
          <mxGeometry relative="1" as="geometry" />
        </mxCell>
        <mxCell id="K_OXefUXwWz0F2jkkwNq-88" value="&lt;div style=&quot;background-color: rgb(255 , 255 , 255) ; font-family: &amp;#34;droid sans mono&amp;#34; , monospace , monospace , &amp;#34;droid sans fallback&amp;#34; ; font-size: 18px ; line-height: 24px&quot;&gt;do_sys_open&lt;/div&gt;" style="whiteSpace=wrap;html=1;fontSize=12;strokeWidth=1;" parent="1" vertex="1">
          <mxGeometry x="1460" y="1660" width="120" height="60" as="geometry" />
        </mxCell>
        <mxCell id="K_OXefUXwWz0F2jkkwNq-90" value="&lt;font style=&quot;font-size: 14px&quot;&gt;fs/open.c&lt;/font&gt;" style="text;html=1;align=center;verticalAlign=middle;resizable=0;points=[];autosize=1;strokeColor=none;fontSize=12;" parent="1" vertex="1">
          <mxGeometry x="1475" y="1630" width="80" height="20" as="geometry" />
        </mxCell>
        <mxCell id="K_OXefUXwWz0F2jkkwNq-94" style="edgeStyle=orthogonalEdgeStyle;rounded=0;orthogonalLoop=1;jettySize=auto;html=1;fontSize=12;strokeWidth=1;" parent="1" source="K_OXefUXwWz0F2jkkwNq-91" target="K_OXefUXwWz0F2jkkwNq-93" edge="1">
          <mxGeometry relative="1" as="geometry" />
        </mxCell>
        <mxCell id="K_OXefUXwWz0F2jkkwNq-91" value="&lt;div style=&quot;background-color: rgb(255 , 255 , 255) ; font-family: &amp;#34;droid sans mono&amp;#34; , monospace , monospace , &amp;#34;droid sans fallback&amp;#34; ; font-size: 18px ; line-height: 24px&quot;&gt;do_filp_open&lt;/div&gt;" style="whiteSpace=wrap;html=1;fontSize=12;strokeWidth=1;" parent="1" vertex="1">
          <mxGeometry x="1635" y="1660" width="120" height="60" as="geometry" />
        </mxCell>
        <mxCell id="K_OXefUXwWz0F2jkkwNq-96" style="edgeStyle=orthogonalEdgeStyle;rounded=0;orthogonalLoop=1;jettySize=auto;html=1;fontSize=12;strokeWidth=1;" parent="1" source="K_OXefUXwWz0F2jkkwNq-93" target="K_OXefUXwWz0F2jkkwNq-95" edge="1">
          <mxGeometry relative="1" as="geometry" />
        </mxCell>
        <mxCell id="th4No7kTdInj7C2i5F7E-84" style="edgeStyle=orthogonalEdgeStyle;rounded=0;orthogonalLoop=1;jettySize=auto;html=1;entryX=0;entryY=0.5;entryDx=0;entryDy=0;fontSize=12;" parent="1" source="K_OXefUXwWz0F2jkkwNq-93" target="th4No7kTdInj7C2i5F7E-83" edge="1">
          <mxGeometry relative="1" as="geometry" />
        </mxCell>
        <mxCell id="bFUcmNmUVyggY-1MJHPU-2" style="edgeStyle=orthogonalEdgeStyle;rounded=0;orthogonalLoop=1;jettySize=auto;html=1;entryX=0;entryY=0.5;entryDx=0;entryDy=0;" parent="1" source="K_OXefUXwWz0F2jkkwNq-93" target="bFUcmNmUVyggY-1MJHPU-1" edge="1">
          <mxGeometry relative="1" as="geometry" />
        </mxCell>
        <mxCell id="bFUcmNmUVyggY-1MJHPU-5" style="edgeStyle=orthogonalEdgeStyle;rounded=0;orthogonalLoop=1;jettySize=auto;html=1;entryX=0;entryY=0.5;entryDx=0;entryDy=0;" parent="1" source="K_OXefUXwWz0F2jkkwNq-93" target="bFUcmNmUVyggY-1MJHPU-3" edge="1">
          <mxGeometry relative="1" as="geometry" />
        </mxCell>
        <mxCell id="K_OXefUXwWz0F2jkkwNq-93" value="&lt;div style=&quot;background-color: rgb(255 , 255 , 255) ; font-family: &amp;#34;droid sans mono&amp;#34; , monospace , monospace , &amp;#34;droid sans fallback&amp;#34; ; font-size: 18px ; line-height: 24px&quot;&gt;path_openat&lt;/div&gt;" style="whiteSpace=wrap;html=1;fontSize=12;strokeWidth=1;" parent="1" vertex="1">
          <mxGeometry x="1820" y="1660" width="120" height="60" as="geometry" />
        </mxCell>
        <mxCell id="K_OXefUXwWz0F2jkkwNq-99" style="edgeStyle=orthogonalEdgeStyle;rounded=0;orthogonalLoop=1;jettySize=auto;html=1;entryX=0;entryY=0.5;entryDx=0;entryDy=0;fontSize=12;strokeWidth=1;" parent="1" source="K_OXefUXwWz0F2jkkwNq-95" target="K_OXefUXwWz0F2jkkwNq-98" edge="1">
          <mxGeometry relative="1" as="geometry" />
        </mxCell>
        <mxCell id="K_OXefUXwWz0F2jkkwNq-95" value="&lt;div style=&quot;background-color: rgb(255 , 255 , 255) ; font-family: &amp;#34;droid sans mono&amp;#34; , monospace , monospace , &amp;#34;droid sans fallback&amp;#34; ; font-size: 18px ; line-height: 24px&quot;&gt;get_empty_filp&lt;/div&gt;" style="whiteSpace=wrap;html=1;fontSize=12;strokeWidth=1;" parent="1" vertex="1">
          <mxGeometry x="2030" y="1660" width="140" height="60" as="geometry" />
        </mxCell>
        <mxCell id="K_OXefUXwWz0F2jkkwNq-98" value="&lt;div style=&quot;background-color: rgb(255 , 255 , 255) ; font-family: &amp;#34;droid sans mono&amp;#34; , monospace , monospace , &amp;#34;droid sans fallback&amp;#34; ; font-size: 18px ; line-height: 24px&quot;&gt;kmem_cache_zalloc&lt;/div&gt;" style="whiteSpace=wrap;html=1;fontSize=12;strokeWidth=1;" parent="1" vertex="1">
          <mxGeometry x="2240" y="1660" width="180" height="60" as="geometry" />
        </mxCell>
        <mxCell id="K_OXefUXwWz0F2jkkwNq-102" style="edgeStyle=orthogonalEdgeStyle;rounded=0;orthogonalLoop=1;jettySize=auto;html=1;fontSize=12;strokeWidth=1;dashed=1;" parent="1" source="K_OXefUXwWz0F2jkkwNq-101" target="K_OXefUXwWz0F2jkkwNq-98" edge="1">
          <mxGeometry relative="1" as="geometry" />
        </mxCell>
        <mxCell id="K_OXefUXwWz0F2jkkwNq-101" value="&lt;span style=&quot;font-family: &amp;#34;droid sans mono&amp;#34; , monospace , monospace , &amp;#34;droid sans fallback&amp;#34; ; font-size: 18px ; background-color: rgb(255 , 255 , 255)&quot;&gt;filp_cachep&lt;/span&gt;" style="shape=process;whiteSpace=wrap;html=1;backgroundOutline=1;fontSize=12;strokeWidth=1;" parent="1" vertex="1">
          <mxGeometry x="2450" y="1660" width="160" height="60" as="geometry" />
        </mxCell>
        <mxCell id="th4No7kTdInj7C2i5F7E-1" value="&lt;div style=&quot;background-color: rgb(255 , 255 , 255) ; font-family: &amp;#34;droid sans mono&amp;#34; , monospace , monospace , &amp;#34;droid sans fallback&amp;#34; ; font-size: 18px ; line-height: 24px&quot;&gt;parse_options&lt;/div&gt;" style="rounded=0;whiteSpace=wrap;html=1;" parent="1" vertex="1">
          <mxGeometry x="3360" y="1010" width="130" height="60" as="geometry" />
        </mxCell>
        <mxCell id="th4No7kTdInj7C2i5F7E-3" value="&lt;font style=&quot;font-size: 14px&quot;&gt;解析fstab中的参数&lt;/font&gt;" style="text;html=1;align=center;verticalAlign=middle;resizable=0;points=[];autosize=1;strokeColor=none;" parent="1" vertex="1">
          <mxGeometry x="3332" y="980" width="130" height="20" as="geometry" />
        </mxCell>
        <mxCell id="th4No7kTdInj7C2i5F7E-6" value="&lt;span style=&quot;font-family: &amp;#34;droid sans mono&amp;#34; , monospace , monospace , &amp;#34;droid sans fallback&amp;#34; ; font-size: 18px ; text-align: left ; background-color: rgb(255 , 255 , 255)&quot;&gt;sget&lt;/span&gt;" style="rounded=0;whiteSpace=wrap;html=1;" parent="1" vertex="1">
          <mxGeometry x="2960" y="1010" width="140" height="60" as="geometry" />
        </mxCell>
        <mxCell id="th4No7kTdInj7C2i5F7E-9" value="&lt;font style=&quot;font-size: 14px&quot;&gt;查找或创建super_block&lt;/font&gt;" style="text;html=1;align=center;verticalAlign=middle;resizable=0;points=[];autosize=1;strokeColor=none;" parent="1" vertex="1">
          <mxGeometry x="2955" y="980" width="170" height="20" as="geometry" />
        </mxCell>
        <mxCell id="th4No7kTdInj7C2i5F7E-10" value="&lt;font style=&quot;font-size: 14px&quot;&gt;填充super_block&lt;/font&gt;" style="text;html=1;align=center;verticalAlign=middle;resizable=0;points=[];autosize=1;strokeColor=none;" parent="1" vertex="1">
          <mxGeometry x="2955" y="1225" width="120" height="20" as="geometry" />
        </mxCell>
        <mxCell id="th4No7kTdInj7C2i5F7E-11" value="&lt;font style=&quot;font-size: 14px&quot;&gt;fs/super.c&lt;/font&gt;" style="text;html=1;align=center;verticalAlign=middle;resizable=0;points=[];autosize=1;strokeColor=none;" parent="1" vertex="1">
          <mxGeometry x="2790" y="1220" width="80" height="20" as="geometry" />
        </mxCell>
        <mxCell id="th4No7kTdInj7C2i5F7E-29" value="&lt;font style=&quot;font-size: 16px&quot;&gt;&lt;b&gt;FAT文件系统挂载&lt;/b&gt;&lt;/font&gt;" style="text;html=1;align=center;verticalAlign=middle;resizable=0;points=[];autosize=1;strokeColor=none;fontSize=12;" parent="1" vertex="1">
          <mxGeometry x="2580" y="1090" width="140" height="20" as="geometry" />
        </mxCell>
        <mxCell id="th4No7kTdInj7C2i5F7E-30" value="fs/filesystems.c" style="text;html=1;align=center;verticalAlign=middle;resizable=0;points=[];autosize=1;strokeColor=none;fontSize=12;" parent="1" vertex="1">
          <mxGeometry x="354" y="1120" width="100" height="20" as="geometry" />
        </mxCell>
        <mxCell id="th4No7kTdInj7C2i5F7E-31" value="&lt;font style=&quot;font-size: 18px&quot;&gt;ex4_mount&lt;/font&gt;" style="whiteSpace=wrap;html=1;fontSize=12;" parent="1" vertex="1">
          <mxGeometry x="2580" y="1490" width="120" height="60" as="geometry" />
        </mxCell>
        <mxCell id="th4No7kTdInj7C2i5F7E-33" value="&lt;font style=&quot;font-size: 17px&quot;&gt;EX4文件系统挂载&lt;/font&gt;" style="text;html=1;align=center;verticalAlign=middle;resizable=0;points=[];autosize=1;strokeColor=none;fontSize=12;fontStyle=1" parent="1" vertex="1">
          <mxGeometry x="2580" y="1460" width="150" height="20" as="geometry" />
        </mxCell>
        <mxCell id="th4No7kTdInj7C2i5F7E-34" value="&lt;font style=&quot;font-size: 14px&quot;&gt;fs/namespace.c&lt;/font&gt;" style="text;html=1;align=center;verticalAlign=middle;resizable=0;points=[];autosize=1;strokeColor=none;fontSize=12;" parent="1" vertex="1">
          <mxGeometry x="2046" y="1380" width="120" height="20" as="geometry" />
        </mxCell>
        <mxCell id="th4No7kTdInj7C2i5F7E-35" value="&lt;font style=&quot;font-size: 14px&quot;&gt;fs/super.c&lt;/font&gt;" style="text;html=1;align=center;verticalAlign=middle;resizable=0;points=[];autosize=1;strokeColor=none;fontSize=12;" parent="1" vertex="1">
          <mxGeometry x="2250" y="1380" width="80" height="20" as="geometry" />
        </mxCell>
        <mxCell id="th4No7kTdInj7C2i5F7E-36" value="&lt;font style=&quot;font-size: 14px&quot;&gt;fs/fat/fat_namei_vfat.c&lt;/font&gt;" style="text;html=1;align=center;verticalAlign=middle;resizable=0;points=[];autosize=1;strokeColor=none;fontSize=12;" parent="1" vertex="1">
          <mxGeometry x="2570" y="1220" width="160" height="20" as="geometry" />
        </mxCell>
        <mxCell id="th4No7kTdInj7C2i5F7E-49" style="edgeStyle=orthogonalEdgeStyle;rounded=0;orthogonalLoop=1;jettySize=auto;html=1;entryX=0;entryY=0.5;entryDx=0;entryDy=0;fontSize=12;" parent="1" source="th4No7kTdInj7C2i5F7E-37" target="th4No7kTdInj7C2i5F7E-39" edge="1">
          <mxGeometry relative="1" as="geometry" />
        </mxCell>
        <mxCell id="th4No7kTdInj7C2i5F7E-37" value="&lt;div style=&quot;background-color: rgb(255 , 255 , 255) ; font-family: &amp;#34;droid sans mono&amp;#34; , monospace , monospace , &amp;#34;droid sans fallback&amp;#34; ; font-size: 18px ; line-height: 24px&quot;&gt;blkdev_get_by_path&lt;/div&gt;" style="whiteSpace=wrap;html=1;fontSize=12;" parent="1" vertex="1">
          <mxGeometry x="2960" y="840" width="180" height="60" as="geometry" />
        </mxCell>
        <mxCell id="th4No7kTdInj7C2i5F7E-44" style="edgeStyle=orthogonalEdgeStyle;rounded=0;orthogonalLoop=1;jettySize=auto;html=1;entryX=0;entryY=0.5;entryDx=0;entryDy=0;fontSize=12;" parent="1" source="th4No7kTdInj7C2i5F7E-39" target="th4No7kTdInj7C2i5F7E-41" edge="1">
          <mxGeometry relative="1" as="geometry" />
        </mxCell>
        <mxCell id="th4No7kTdInj7C2i5F7E-45" style="edgeStyle=orthogonalEdgeStyle;rounded=0;orthogonalLoop=1;jettySize=auto;html=1;entryX=0;entryY=0.5;entryDx=0;entryDy=0;fontSize=12;" parent="1" source="th4No7kTdInj7C2i5F7E-39" target="th4No7kTdInj7C2i5F7E-43" edge="1">
          <mxGeometry relative="1" as="geometry" />
        </mxCell>
        <mxCell id="th4No7kTdInj7C2i5F7E-39" value="&lt;div style=&quot;background-color: rgb(255 , 255 , 255) ; font-family: &amp;#34;droid sans mono&amp;#34; , monospace , monospace , &amp;#34;droid sans fallback&amp;#34; ; font-size: 18px ; line-height: 24px&quot;&gt;lookup_bdev&lt;/div&gt;" style="whiteSpace=wrap;html=1;fontSize=12;" parent="1" vertex="1">
          <mxGeometry x="3160" y="840" width="120" height="60" as="geometry" />
        </mxCell>
        <mxCell id="th4No7kTdInj7C2i5F7E-41" value="&lt;div style=&quot;background-color: rgb(255 , 255 , 255) ; font-family: &amp;#34;droid sans mono&amp;#34; , monospace , monospace , &amp;#34;droid sans fallback&amp;#34; ; font-size: 18px ; line-height: 24px&quot;&gt;kern_path&lt;/div&gt;" style="whiteSpace=wrap;html=1;fontSize=12;" parent="1" vertex="1">
          <mxGeometry x="3360" y="780" width="120" height="60" as="geometry" />
        </mxCell>
        <mxCell id="th4No7kTdInj7C2i5F7E-53" style="edgeStyle=orthogonalEdgeStyle;rounded=0;orthogonalLoop=1;jettySize=auto;html=1;entryX=0;entryY=0.5;entryDx=0;entryDy=0;fontSize=12;" parent="1" source="th4No7kTdInj7C2i5F7E-43" target="th4No7kTdInj7C2i5F7E-50" edge="1">
          <mxGeometry relative="1" as="geometry" />
        </mxCell>
        <mxCell id="th4No7kTdInj7C2i5F7E-43" value="&lt;div style=&quot;background-color: rgb(255 , 255 , 255) ; font-family: &amp;#34;droid sans mono&amp;#34; , monospace , monospace , &amp;#34;droid sans fallback&amp;#34; ; font-size: 18px ; line-height: 24px&quot;&gt;bd_acquire&lt;/div&gt;" style="whiteSpace=wrap;html=1;fontSize=12;" parent="1" vertex="1">
          <mxGeometry x="3360" y="880" width="120" height="60" as="geometry" />
        </mxCell>
        <mxCell id="th4No7kTdInj7C2i5F7E-46" value="&lt;font style=&quot;font-size: 14px&quot;&gt;查找block_device&lt;/font&gt;" style="text;html=1;align=center;verticalAlign=middle;resizable=0;points=[];autosize=1;strokeColor=none;fontSize=12;" parent="1" vertex="1">
          <mxGeometry x="2965" y="810" width="130" height="20" as="geometry" />
        </mxCell>
        <mxCell id="th4No7kTdInj7C2i5F7E-55" style="edgeStyle=orthogonalEdgeStyle;rounded=0;orthogonalLoop=1;jettySize=auto;html=1;entryX=0;entryY=0.5;entryDx=0;entryDy=0;fontSize=12;" parent="1" source="th4No7kTdInj7C2i5F7E-50" target="th4No7kTdInj7C2i5F7E-54" edge="1">
          <mxGeometry relative="1" as="geometry" />
        </mxCell>
        <mxCell id="th4No7kTdInj7C2i5F7E-50" value="&lt;div style=&quot;background-color: rgb(255 , 255 , 255) ; font-family: &amp;#34;droid sans mono&amp;#34; , monospace , monospace , &amp;#34;droid sans fallback&amp;#34; ; font-size: 18px ; line-height: 24px&quot;&gt;bdget&lt;/div&gt;" style="whiteSpace=wrap;html=1;fontSize=12;" parent="1" vertex="1">
          <mxGeometry x="3560" y="880" width="120" height="60" as="geometry" />
        </mxCell>
        <mxCell id="th4No7kTdInj7C2i5F7E-52" style="edgeStyle=orthogonalEdgeStyle;rounded=0;orthogonalLoop=1;jettySize=auto;html=1;entryX=1;entryY=0.5;entryDx=0;entryDy=0;fontSize=12;" parent="1" source="th4No7kTdInj7C2i5F7E-51" target="th4No7kTdInj7C2i5F7E-43" edge="1">
          <mxGeometry relative="1" as="geometry" />
        </mxCell>
        <mxCell id="th4No7kTdInj7C2i5F7E-51" value="&lt;div style=&quot;background-color: rgb(255 , 255 , 255) ; font-family: &amp;#34;droid sans mono&amp;#34; , monospace , monospace , &amp;#34;droid sans fallback&amp;#34; ; font-size: 18px ; line-height: 24px&quot;&gt;inode-&amp;gt;i_bdev&lt;/div&gt;" style="shape=process;whiteSpace=wrap;html=1;backgroundOutline=1;fontSize=12;" parent="1" vertex="1">
          <mxGeometry x="3560" y="790" width="160" height="60" as="geometry" />
        </mxCell>
        <mxCell id="th4No7kTdInj7C2i5F7E-54" value="&lt;div style=&quot;background-color: rgb(255 , 255 , 255) ; font-family: &amp;#34;droid sans mono&amp;#34; , monospace , monospace , &amp;#34;droid sans fallback&amp;#34; ; font-size: 18px ; line-height: 24px&quot;&gt;iget5_locked&lt;/div&gt;" style="whiteSpace=wrap;html=1;fontSize=12;" parent="1" vertex="1">
          <mxGeometry x="3830" y="880" width="120" height="60" as="geometry" />
        </mxCell>
        <mxCell id="th4No7kTdInj7C2i5F7E-57" style="edgeStyle=orthogonalEdgeStyle;rounded=0;orthogonalLoop=1;jettySize=auto;html=1;fontSize=12;dashed=1;" parent="1" source="th4No7kTdInj7C2i5F7E-56" target="th4No7kTdInj7C2i5F7E-54" edge="1">
          <mxGeometry relative="1" as="geometry" />
        </mxCell>
        <mxCell id="th4No7kTdInj7C2i5F7E-56" value="&lt;div style=&quot;font-family: &amp;quot;droid sans mono&amp;quot;, monospace, monospace, &amp;quot;droid sans fallback&amp;quot;; font-size: 18px; line-height: 24px;&quot;&gt;blockdev_superblock&lt;/div&gt;" style="shape=process;whiteSpace=wrap;html=1;backgroundOutline=1;fontSize=12;labelBackgroundColor=#ffffff;" parent="1" vertex="1">
          <mxGeometry x="3775" y="790" width="230" height="60" as="geometry" />
        </mxCell>
        <mxCell id="th4No7kTdInj7C2i5F7E-58" value="&lt;font style=&quot;font-size: 14px&quot;&gt;查找或者创建inode&lt;/font&gt;" style="text;html=1;align=center;verticalAlign=middle;resizable=0;points=[];autosize=1;strokeColor=none;fontSize=12;" parent="1" vertex="1">
          <mxGeometry x="3820" y="950" width="140" height="20" as="geometry" />
        </mxCell>
        <mxCell id="th4No7kTdInj7C2i5F7E-64" style="edgeStyle=orthogonalEdgeStyle;rounded=0;orthogonalLoop=1;jettySize=auto;html=1;entryX=0;entryY=0.5;entryDx=0;entryDy=0;fontSize=12;" parent="1" source="th4No7kTdInj7C2i5F7E-60" target="th4No7kTdInj7C2i5F7E-63" edge="1">
          <mxGeometry relative="1" as="geometry" />
        </mxCell>
        <mxCell id="th4No7kTdInj7C2i5F7E-60" value="&lt;span style=&quot;font-size: 17px ; background-color: rgb(255 , 255 , 255)&quot;&gt;jffs2_mount&lt;/span&gt;" style="whiteSpace=wrap;html=1;labelBackgroundColor=#30FF29;fontSize=12;" parent="1" vertex="1">
          <mxGeometry x="2590" y="1315" width="120" height="60" as="geometry" />
        </mxCell>
        <mxCell id="th4No7kTdInj7C2i5F7E-62" value="&lt;font style=&quot;font-size: 16px&quot;&gt;&lt;b&gt;JFFS2文件系统挂载&lt;/b&gt;&lt;/font&gt;" style="text;html=1;align=center;verticalAlign=middle;resizable=0;points=[];autosize=1;strokeColor=none;fontSize=12;" parent="1" vertex="1">
          <mxGeometry x="2570" y="1275" width="160" height="20" as="geometry" />
        </mxCell>
        <mxCell id="th4No7kTdInj7C2i5F7E-68" style="edgeStyle=orthogonalEdgeStyle;rounded=0;orthogonalLoop=1;jettySize=auto;html=1;entryX=0;entryY=0.5;entryDx=0;entryDy=0;fontSize=12;" parent="1" source="th4No7kTdInj7C2i5F7E-63" target="th4No7kTdInj7C2i5F7E-67" edge="1">
          <mxGeometry relative="1" as="geometry" />
        </mxCell>
        <mxCell id="th4No7kTdInj7C2i5F7E-70" style="edgeStyle=orthogonalEdgeStyle;rounded=0;orthogonalLoop=1;jettySize=auto;html=1;entryX=0;entryY=0.5;entryDx=0;entryDy=0;fontSize=12;" parent="1" source="th4No7kTdInj7C2i5F7E-63" target="th4No7kTdInj7C2i5F7E-69" edge="1">
          <mxGeometry relative="1" as="geometry" />
        </mxCell>
        <mxCell id="th4No7kTdInj7C2i5F7E-63" value="&lt;div style=&quot;background-color: rgb(255 , 255 , 255) ; font-family: &amp;#34;droid sans mono&amp;#34; , monospace , monospace , &amp;#34;droid sans fallback&amp;#34; ; font-size: 18px ; line-height: 24px&quot;&gt;mount_mtd&lt;/div&gt;" style="whiteSpace=wrap;html=1;labelBackgroundColor=#30FF29;fontSize=12;" parent="1" vertex="1">
          <mxGeometry x="2770" y="1315" width="120" height="60" as="geometry" />
        </mxCell>
        <mxCell id="th4No7kTdInj7C2i5F7E-65" value="&lt;font style=&quot;font-size: 14px&quot;&gt;fs/jffs2/super.c&lt;/font&gt;" style="text;html=1;align=center;verticalAlign=middle;resizable=0;points=[];autosize=1;strokeColor=none;fontSize=12;" parent="1" vertex="1">
          <mxGeometry x="2595" y="1375" width="110" height="20" as="geometry" />
        </mxCell>
        <mxCell id="th4No7kTdInj7C2i5F7E-66" value="&lt;font style=&quot;font-size: 14px&quot;&gt;driver/mtd/mtdsuper.c&lt;/font&gt;" style="text;html=1;align=center;verticalAlign=middle;resizable=0;points=[];autosize=1;strokeColor=none;fontSize=12;" parent="1" vertex="1">
          <mxGeometry x="2750" y="1390" width="160" height="20" as="geometry" />
        </mxCell>
        <mxCell id="th4No7kTdInj7C2i5F7E-67" value="&lt;div style=&quot;background-color: rgb(255 , 255 , 255) ; font-family: &amp;#34;droid sans mono&amp;#34; , monospace , monospace , &amp;#34;droid sans fallback&amp;#34; ; font-size: 18px ; line-height: 24px&quot;&gt;lookup_bdev&lt;/div&gt;" style="whiteSpace=wrap;html=1;labelBackgroundColor=#30FF29;fontSize=12;" parent="1" vertex="1">
          <mxGeometry x="2960" y="1315" width="120" height="60" as="geometry" />
        </mxCell>
        <mxCell id="th4No7kTdInj7C2i5F7E-73" style="edgeStyle=orthogonalEdgeStyle;rounded=0;orthogonalLoop=1;jettySize=auto;html=1;entryX=0;entryY=0.5;entryDx=0;entryDy=0;fontSize=12;" parent="1" source="th4No7kTdInj7C2i5F7E-69" target="th4No7kTdInj7C2i5F7E-71" edge="1">
          <mxGeometry relative="1" as="geometry" />
        </mxCell>
        <mxCell id="th4No7kTdInj7C2i5F7E-74" style="edgeStyle=orthogonalEdgeStyle;rounded=0;orthogonalLoop=1;jettySize=auto;html=1;entryX=0;entryY=0.5;entryDx=0;entryDy=0;fontSize=12;" parent="1" source="th4No7kTdInj7C2i5F7E-69" target="th4No7kTdInj7C2i5F7E-72" edge="1">
          <mxGeometry relative="1" as="geometry" />
        </mxCell>
        <mxCell id="th4No7kTdInj7C2i5F7E-69" value="&lt;div style=&quot;background-color: rgb(255 , 255 , 255) ; font-family: &amp;#34;droid sans mono&amp;#34; , monospace , monospace , &amp;#34;droid sans fallback&amp;#34; ; font-size: 18px ; line-height: 24px&quot;&gt;mount_mtd_nr&lt;/div&gt;" style="whiteSpace=wrap;html=1;labelBackgroundColor=#30FF29;fontSize=12;" parent="1" vertex="1">
          <mxGeometry x="2960" y="1410" width="140" height="60" as="geometry" />
        </mxCell>
        <mxCell id="th4No7kTdInj7C2i5F7E-71" value="&lt;div style=&quot;background-color: rgb(255 , 255 , 255) ; font-family: &amp;#34;droid sans mono&amp;#34; , monospace , monospace , &amp;#34;droid sans fallback&amp;#34; ; font-size: 18px ; line-height: 24px&quot;&gt;get_mtd_device&lt;/div&gt;" style="whiteSpace=wrap;html=1;labelBackgroundColor=#30FF29;fontSize=12;" parent="1" vertex="1">
          <mxGeometry x="3160" y="1410" width="150" height="60" as="geometry" />
        </mxCell>
        <mxCell id="th4No7kTdInj7C2i5F7E-76" style="edgeStyle=orthogonalEdgeStyle;rounded=0;orthogonalLoop=1;jettySize=auto;html=1;entryX=0;entryY=0.5;entryDx=0;entryDy=0;fontSize=12;" parent="1" source="th4No7kTdInj7C2i5F7E-72" target="th4No7kTdInj7C2i5F7E-75" edge="1">
          <mxGeometry relative="1" as="geometry" />
        </mxCell>
        <mxCell id="th4No7kTdInj7C2i5F7E-78" style="edgeStyle=orthogonalEdgeStyle;rounded=0;orthogonalLoop=1;jettySize=auto;html=1;entryX=0;entryY=0.5;entryDx=0;entryDy=0;fontSize=12;" parent="1" source="th4No7kTdInj7C2i5F7E-72" target="th4No7kTdInj7C2i5F7E-77" edge="1">
          <mxGeometry relative="1" as="geometry" />
        </mxCell>
        <mxCell id="th4No7kTdInj7C2i5F7E-72" value="&lt;div style=&quot;background-color: rgb(255 , 255 , 255) ; font-family: &amp;#34;droid sans mono&amp;#34; , monospace , monospace , &amp;#34;droid sans fallback&amp;#34; ; font-size: 18px ; line-height: 24px&quot;&gt;mount_mtd_aux&lt;/div&gt;" style="whiteSpace=wrap;html=1;labelBackgroundColor=#30FF29;fontSize=12;" parent="1" vertex="1">
          <mxGeometry x="3160" y="1510" width="160" height="60" as="geometry" />
        </mxCell>
        <mxCell id="th4No7kTdInj7C2i5F7E-75" value="&lt;div style=&quot;background-color: rgb(255 , 255 , 255) ; font-family: &amp;#34;droid sans mono&amp;#34; , monospace , monospace , &amp;#34;droid sans fallback&amp;#34; ; font-size: 18px ; line-height: 24px&quot;&gt;sget&lt;/div&gt;" style="whiteSpace=wrap;html=1;labelBackgroundColor=#30FF29;fontSize=12;strokeColor=#000000;" parent="1" vertex="1">
          <mxGeometry x="3370" y="1460" width="120" height="60" as="geometry" />
        </mxCell>
        <mxCell id="th4No7kTdInj7C2i5F7E-80" style="edgeStyle=orthogonalEdgeStyle;rounded=0;orthogonalLoop=1;jettySize=auto;html=1;fontSize=12;" parent="1" source="th4No7kTdInj7C2i5F7E-77" target="th4No7kTdInj7C2i5F7E-79" edge="1">
          <mxGeometry relative="1" as="geometry" />
        </mxCell>
        <mxCell id="th4No7kTdInj7C2i5F7E-82" style="edgeStyle=orthogonalEdgeStyle;rounded=0;orthogonalLoop=1;jettySize=auto;html=1;entryX=0;entryY=0.5;entryDx=0;entryDy=0;fontSize=12;" parent="1" source="th4No7kTdInj7C2i5F7E-77" target="th4No7kTdInj7C2i5F7E-81" edge="1">
          <mxGeometry relative="1" as="geometry" />
        </mxCell>
        <mxCell id="th4No7kTdInj7C2i5F7E-77" value="&lt;div style=&quot;background-color: rgb(255 , 255 , 255) ; font-family: &amp;#34;droid sans mono&amp;#34; , monospace , monospace , &amp;#34;droid sans fallback&amp;#34; ; font-size: 18px ; line-height: 24px&quot;&gt;jffs2_fill_super&lt;/div&gt;" style="whiteSpace=wrap;html=1;labelBackgroundColor=#30FF29;fontSize=12;strokeColor=#000000;" parent="1" vertex="1">
          <mxGeometry x="3370" y="1570" width="140" height="60" as="geometry" />
        </mxCell>
        <mxCell id="th4No7kTdInj7C2i5F7E-79" value="&lt;div style=&quot;background-color: rgb(255 , 255 , 255) ; font-family: &amp;#34;droid sans mono&amp;#34; , monospace , monospace , &amp;#34;droid sans fallback&amp;#34; ; font-size: 18px ; line-height: 24px&quot;&gt;jffs2_parse_options&lt;/div&gt;" style="whiteSpace=wrap;html=1;labelBackgroundColor=#30FF29;fontSize=12;strokeColor=#000000;" parent="1" vertex="1">
          <mxGeometry x="3580" y="1570" width="180" height="60" as="geometry" />
        </mxCell>
        <mxCell id="th4No7kTdInj7C2i5F7E-81" value="&lt;div style=&quot;background-color: rgb(255 , 255 , 255) ; font-family: &amp;#34;droid sans mono&amp;#34; , monospace , monospace , &amp;#34;droid sans fallback&amp;#34; ; font-size: 18px ; line-height: 24px&quot;&gt;jffs2_do_fill_super&lt;/div&gt;" style="whiteSpace=wrap;html=1;labelBackgroundColor=#30FF29;fontSize=12;strokeColor=#000000;" parent="1" vertex="1">
          <mxGeometry x="3580" y="1694" width="170" height="60" as="geometry" />
        </mxCell>
        <mxCell id="bFUcmNmUVyggY-1MJHPU-7" style="edgeStyle=orthogonalEdgeStyle;rounded=0;orthogonalLoop=1;jettySize=auto;html=1;entryX=0;entryY=0.5;entryDx=0;entryDy=0;" parent="1" source="th4No7kTdInj7C2i5F7E-83" target="bFUcmNmUVyggY-1MJHPU-6" edge="1">
          <mxGeometry relative="1" as="geometry" />
        </mxCell>
        <mxCell id="bFUcmNmUVyggY-1MJHPU-8" style="edgeStyle=orthogonalEdgeStyle;rounded=0;orthogonalLoop=1;jettySize=auto;html=1;entryX=0;entryY=0.5;entryDx=0;entryDy=0;" parent="1" source="th4No7kTdInj7C2i5F7E-83" target="th4No7kTdInj7C2i5F7E-85" edge="1">
          <mxGeometry relative="1" as="geometry" />
        </mxCell>
        <mxCell id="th4No7kTdInj7C2i5F7E-83" value="&lt;div style=&quot;background-color: rgb(255 , 255 , 255) ; font-family: &amp;#34;droid sans mono&amp;#34; , monospace , monospace , &amp;#34;droid sans fallback&amp;#34; ; font-size: 18px ; line-height: 24px&quot;&gt;do_last&lt;/div&gt;" style="whiteSpace=wrap;html=1;labelBackgroundColor=#30FF29;fontSize=12;strokeColor=#000000;" parent="1" vertex="1">
          <mxGeometry x="2030" y="1940" width="120" height="60" as="geometry" />
        </mxCell>
        <mxCell id="2sYCzU9u1Vf6DmMvPqSg-30" style="edgeStyle=orthogonalEdgeStyle;rounded=0;orthogonalLoop=1;jettySize=auto;html=1;entryX=0;entryY=0.5;entryDx=0;entryDy=0;" edge="1" parent="1" source="th4No7kTdInj7C2i5F7E-85" target="th4No7kTdInj7C2i5F7E-87">
          <mxGeometry relative="1" as="geometry" />
        </mxCell>
        <mxCell id="2sYCzU9u1Vf6DmMvPqSg-54" style="edgeStyle=orthogonalEdgeStyle;rounded=0;orthogonalLoop=1;jettySize=auto;html=1;entryX=0;entryY=0.5;entryDx=0;entryDy=0;" edge="1" parent="1" source="th4No7kTdInj7C2i5F7E-85" target="th4No7kTdInj7C2i5F7E-92">
          <mxGeometry relative="1" as="geometry" />
        </mxCell>
        <mxCell id="th4No7kTdInj7C2i5F7E-85" value="&lt;div style=&quot;background-color: rgb(255 , 255 , 255) ; font-family: &amp;#34;droid sans mono&amp;#34; , monospace , monospace , &amp;#34;droid sans fallback&amp;#34; ; font-size: 18px ; line-height: 24px&quot;&gt;vfs_open&lt;/div&gt;" style="whiteSpace=wrap;html=1;labelBackgroundColor=#30FF29;fontSize=12;strokeColor=#000000;" parent="1" vertex="1">
          <mxGeometry x="2238.75" y="2334" width="120" height="60" as="geometry" />
        </mxCell>
        <mxCell id="th4No7kTdInj7C2i5F7E-90" style="edgeStyle=orthogonalEdgeStyle;rounded=0;orthogonalLoop=1;jettySize=auto;html=1;entryX=0;entryY=0.5;entryDx=0;entryDy=0;fontSize=12;" parent="1" source="th4No7kTdInj7C2i5F7E-87" target="th4No7kTdInj7C2i5F7E-89" edge="1">
          <mxGeometry relative="1" as="geometry" />
        </mxCell>
        <mxCell id="th4No7kTdInj7C2i5F7E-87" value="&lt;div style=&quot;background-color: rgb(255 , 255 , 255) ; font-family: &amp;#34;droid sans mono&amp;#34; , monospace , monospace , &amp;#34;droid sans fallback&amp;#34; ; font-size: 18px ; line-height: 24px&quot;&gt;do_dentry_open&lt;/div&gt;" style="whiteSpace=wrap;html=1;labelBackgroundColor=#30FF29;fontSize=12;strokeColor=#000000;" parent="1" vertex="1">
          <mxGeometry x="2503.75" y="2339" width="150" height="50" as="geometry" />
        </mxCell>
        <mxCell id="th4No7kTdInj7C2i5F7E-89" value="&lt;div style=&quot;background-color: rgb(255 , 255 , 255) ; font-family: &amp;#34;droid sans mono&amp;#34; , monospace , monospace , &amp;#34;droid sans fallback&amp;#34; ; font-size: 18px ; line-height: 24px&quot;&gt;&lt;br&gt;&lt;/div&gt;" style="whiteSpace=wrap;html=1;labelBackgroundColor=#30FF29;fontSize=12;strokeColor=#000000;" parent="1" vertex="1">
          <mxGeometry x="2828.75" y="2334" width="120" height="60" as="geometry" />
        </mxCell>
        <mxCell id="th4No7kTdInj7C2i5F7E-91" value="&lt;font style=&quot;font-size: 14px&quot;&gt;&lt;span style=&quot;font-family: &amp;#34;droid sans mono&amp;#34; , monospace , monospace , &amp;#34;droid sans fallback&amp;#34;&quot;&gt;file&lt;/span&gt;&lt;span style=&quot;font-family: &amp;#34;droid sans mono&amp;#34; , monospace , monospace , &amp;#34;droid sans fallback&amp;#34; ; background-color: rgb(255 , 255 , 255)&quot;&gt;-&amp;gt;&lt;/span&gt;&lt;span style=&quot;font-family: &amp;#34;droid sans mono&amp;#34; , monospace , monospace , &amp;#34;droid sans fallback&amp;#34;&quot;&gt;f_op&lt;/span&gt;&lt;span style=&quot;font-family: &amp;#34;droid sans mono&amp;#34; , monospace , monospace , &amp;#34;droid sans fallback&amp;#34; ; background-color: rgb(255 , 255 , 255)&quot;&gt;-&amp;gt;&lt;/span&gt;&lt;span style=&quot;font-family: &amp;#34;droid sans mono&amp;#34; , monospace , monospace , &amp;#34;droid sans fallback&amp;#34;&quot;&gt;open&lt;/span&gt;&lt;/font&gt;" style="text;html=1;align=center;verticalAlign=middle;resizable=0;points=[];autosize=1;strokeColor=none;fontSize=12;" parent="1" vertex="1">
          <mxGeometry x="2675" y="2334" width="120" height="20" as="geometry" />
        </mxCell>
        <mxCell id="th4No7kTdInj7C2i5F7E-95" style="edgeStyle=orthogonalEdgeStyle;rounded=0;orthogonalLoop=1;jettySize=auto;html=1;fontSize=12;dashed=1;" parent="1" source="th4No7kTdInj7C2i5F7E-92" target="th4No7kTdInj7C2i5F7E-87" edge="1">
          <mxGeometry relative="1" as="geometry" />
        </mxCell>
        <mxCell id="th4No7kTdInj7C2i5F7E-92" value="&lt;div style=&quot;background-color: rgb(255 , 255 , 255) ; font-family: &amp;#34;droid sans mono&amp;#34; , monospace , monospace , &amp;#34;droid sans fallback&amp;#34; ; font-size: 18px ; line-height: 24px&quot;&gt;vfs_select_inode&lt;/div&gt;" style="whiteSpace=wrap;html=1;labelBackgroundColor=#30FF29;fontSize=12;strokeColor=#000000;" parent="1" vertex="1">
          <mxGeometry x="2503.75" y="2230" width="150" height="60" as="geometry" />
        </mxCell>
        <mxCell id="th4No7kTdInj7C2i5F7E-96" value="&lt;div style=&quot;background-color: rgb(255 , 255 , 255) ; font-family: &amp;#34;droid sans mono&amp;#34; , monospace , monospace , &amp;#34;droid sans fallback&amp;#34; ; font-size: 18px ; line-height: 24px&quot;&gt;inode&lt;/div&gt;" style="text;html=1;align=center;verticalAlign=middle;resizable=0;points=[];autosize=1;strokeColor=none;fontSize=12;" parent="1" vertex="1">
          <mxGeometry x="2600" y="2304" width="60" height="30" as="geometry" />
        </mxCell>
        <mxCell id="bFUcmNmUVyggY-1MJHPU-1" value="&lt;div style=&quot;background-color: rgb(255 , 255 , 255) ; font-family: &amp;#34;droid sans mono&amp;#34; , monospace , monospace , &amp;#34;droid sans fallback&amp;#34; ; font-size: 18px ; line-height: 24px&quot;&gt;path_init&lt;/div&gt;" style="whiteSpace=wrap;html=1;" parent="1" vertex="1">
          <mxGeometry x="2030" y="1753.5" width="120" height="60" as="geometry" />
        </mxCell>
        <mxCell id="bFUcmNmUVyggY-1MJHPU-3" value="&lt;div style=&quot;background-color: rgb(255 , 255 , 255) ; font-family: &amp;#34;droid sans mono&amp;#34; , monospace , monospace , &amp;#34;droid sans fallback&amp;#34; ; font-size: 18px ; line-height: 24px&quot;&gt;link_path_walk&lt;/div&gt;" style="whiteSpace=wrap;html=1;" parent="1" vertex="1">
          <mxGeometry x="2030" y="1850" width="140" height="60" as="geometry" />
        </mxCell>
        <mxCell id="2sYCzU9u1Vf6DmMvPqSg-27" style="edgeStyle=orthogonalEdgeStyle;rounded=0;orthogonalLoop=1;jettySize=auto;html=1;" edge="1" parent="1" source="bFUcmNmUVyggY-1MJHPU-6" target="2sYCzU9u1Vf6DmMvPqSg-4">
          <mxGeometry relative="1" as="geometry" />
        </mxCell>
        <mxCell id="2sYCzU9u1Vf6DmMvPqSg-28" style="edgeStyle=orthogonalEdgeStyle;rounded=0;orthogonalLoop=1;jettySize=auto;html=1;entryX=0;entryY=0.5;entryDx=0;entryDy=0;" edge="1" parent="1" source="bFUcmNmUVyggY-1MJHPU-6" target="2sYCzU9u1Vf6DmMvPqSg-2">
          <mxGeometry relative="1" as="geometry" />
        </mxCell>
        <mxCell id="bFUcmNmUVyggY-1MJHPU-6" value="&lt;div style=&quot;background-color: rgb(255 , 255 , 255) ; font-family: &amp;#34;droid sans mono&amp;#34; , monospace , monospace , &amp;#34;droid sans fallback&amp;#34; ; font-size: 18px ; line-height: 24px&quot;&gt;lookup_open&lt;/div&gt;" style="whiteSpace=wrap;html=1;" parent="1" vertex="1">
          <mxGeometry x="2238.75" y="1940" width="120" height="60" as="geometry" />
        </mxCell>
        <mxCell id="2sYCzU9u1Vf6DmMvPqSg-11" style="edgeStyle=orthogonalEdgeStyle;rounded=0;orthogonalLoop=1;jettySize=auto;html=1;" edge="1" parent="1" source="2sYCzU9u1Vf6DmMvPqSg-2" target="2sYCzU9u1Vf6DmMvPqSg-10">
          <mxGeometry relative="1" as="geometry">
            <Array as="points">
              <mxPoint x="2721.25" y="1880" />
              <mxPoint x="2721.25" y="1790" />
            </Array>
          </mxGeometry>
        </mxCell>
        <mxCell id="2sYCzU9u1Vf6DmMvPqSg-18" style="edgeStyle=orthogonalEdgeStyle;rounded=0;orthogonalLoop=1;jettySize=auto;html=1;" edge="1" parent="1" source="2sYCzU9u1Vf6DmMvPqSg-2" target="2sYCzU9u1Vf6DmMvPqSg-17">
          <mxGeometry relative="1" as="geometry" />
        </mxCell>
        <mxCell id="2sYCzU9u1Vf6DmMvPqSg-2" value="&lt;div style=&quot;background-color: rgb(255 , 255 , 255) ; font-family: &amp;#34;droid sans mono&amp;#34; , monospace , monospace , &amp;#34;droid sans fallback&amp;#34; ; font-size: 18px ; line-height: 24px&quot;&gt;lookup_dcache&lt;/div&gt;" style="whiteSpace=wrap;html=1;" vertex="1" parent="1">
          <mxGeometry x="2510" y="1850" width="150" height="60" as="geometry" />
        </mxCell>
        <mxCell id="2sYCzU9u1Vf6DmMvPqSg-8" style="edgeStyle=orthogonalEdgeStyle;rounded=0;orthogonalLoop=1;jettySize=auto;html=1;" edge="1" parent="1" source="2sYCzU9u1Vf6DmMvPqSg-4" target="2sYCzU9u1Vf6DmMvPqSg-7">
          <mxGeometry relative="1" as="geometry" />
        </mxCell>
        <mxCell id="2sYCzU9u1Vf6DmMvPqSg-4" value="&lt;div style=&quot;background-color: rgb(255 , 255 , 255) ; font-family: &amp;#34;droid sans mono&amp;#34; , monospace , monospace , &amp;#34;droid sans fallback&amp;#34; ; font-size: 18px ; line-height: 24px&quot;&gt;vfs_create2&lt;/div&gt;" style="whiteSpace=wrap;html=1;" vertex="1" parent="1">
          <mxGeometry x="2511.25" y="1940" width="150" height="60" as="geometry" />
        </mxCell>
        <mxCell id="2sYCzU9u1Vf6DmMvPqSg-34" style="edgeStyle=orthogonalEdgeStyle;rounded=0;orthogonalLoop=1;jettySize=auto;html=1;entryX=0;entryY=0.5;entryDx=0;entryDy=0;" edge="1" parent="1" source="2sYCzU9u1Vf6DmMvPqSg-7" target="2sYCzU9u1Vf6DmMvPqSg-33">
          <mxGeometry relative="1" as="geometry" />
        </mxCell>
        <mxCell id="2sYCzU9u1Vf6DmMvPqSg-36" style="edgeStyle=orthogonalEdgeStyle;rounded=0;orthogonalLoop=1;jettySize=auto;html=1;entryX=0;entryY=0.5;entryDx=0;entryDy=0;" edge="1" parent="1" source="2sYCzU9u1Vf6DmMvPqSg-7" target="2sYCzU9u1Vf6DmMvPqSg-35">
          <mxGeometry relative="1" as="geometry" />
        </mxCell>
        <mxCell id="2sYCzU9u1Vf6DmMvPqSg-7" value="&lt;div style=&quot;background-color: rgb(255 , 255 , 255) ; font-family: &amp;#34;droid sans mono&amp;#34; , monospace , monospace , &amp;#34;droid sans fallback&amp;#34; ; font-size: 18px ; line-height: 24px&quot;&gt;&lt;div style=&quot;font-family: &amp;#34;droid sans mono&amp;#34; , monospace , monospace , &amp;#34;droid sans fallback&amp;#34; ; line-height: 24px&quot;&gt;vfat_create&lt;/div&gt;&lt;/div&gt;" style="whiteSpace=wrap;html=1;" vertex="1" parent="1">
          <mxGeometry x="2811.25" y="1940" width="120" height="60" as="geometry" />
        </mxCell>
        <mxCell id="2sYCzU9u1Vf6DmMvPqSg-9" value="&lt;font style=&quot;font-size: 14px&quot;&gt;&lt;span style=&quot;font-family: &amp;#34;droid sans mono&amp;#34; , monospace , monospace , &amp;#34;droid sans fallback&amp;#34; ; background-color: rgb(255 , 255 , 255)&quot;&gt;inode-&amp;gt;&lt;/span&gt;&lt;span style=&quot;font-family: &amp;#34;droid sans mono&amp;#34; , monospace , monospace , &amp;#34;droid sans fallback&amp;#34;&quot;&gt;i_op&lt;/span&gt;&lt;span style=&quot;font-family: &amp;#34;droid sans mono&amp;#34; , monospace , monospace , &amp;#34;droid sans fallback&amp;#34; ; background-color: rgb(255 , 255 , 255)&quot;&gt;-&amp;gt;&lt;/span&gt;&lt;span style=&quot;font-family: &amp;#34;droid sans mono&amp;#34; , monospace , monospace , &amp;#34;droid sans fallback&amp;#34;&quot;&gt;create&lt;/span&gt;&lt;/font&gt;" style="text;html=1;align=center;verticalAlign=middle;resizable=0;points=[];autosize=1;strokeColor=none;" vertex="1" parent="1">
          <mxGeometry x="2659" y="1941" width="150" height="20" as="geometry" />
        </mxCell>
        <mxCell id="2sYCzU9u1Vf6DmMvPqSg-13" style="edgeStyle=orthogonalEdgeStyle;rounded=0;orthogonalLoop=1;jettySize=auto;html=1;entryX=0;entryY=0.5;entryDx=0;entryDy=0;" edge="1" parent="1" source="2sYCzU9u1Vf6DmMvPqSg-10" target="2sYCzU9u1Vf6DmMvPqSg-12">
          <mxGeometry relative="1" as="geometry" />
        </mxCell>
        <mxCell id="2sYCzU9u1Vf6DmMvPqSg-10" value="&lt;div style=&quot;background-color: rgb(255 , 255 , 255) ; font-family: &amp;#34;droid sans mono&amp;#34; , monospace , monospace , &amp;#34;droid sans fallback&amp;#34; ; font-size: 18px ; line-height: 24px&quot;&gt;d_lookup&lt;/div&gt;" style="whiteSpace=wrap;html=1;" vertex="1" parent="1">
          <mxGeometry x="2763.75" y="1770" width="120" height="60" as="geometry" />
        </mxCell>
        <mxCell id="2sYCzU9u1Vf6DmMvPqSg-12" value="&lt;div style=&quot;background-color: rgb(255 , 255 , 255) ; font-family: &amp;#34;droid sans mono&amp;#34; , monospace , monospace , &amp;#34;droid sans fallback&amp;#34; ; font-size: 18px ; line-height: 24px&quot;&gt;d_hash&lt;/div&gt;" style="whiteSpace=wrap;html=1;" vertex="1" parent="1">
          <mxGeometry x="2963.75" y="1770" width="120" height="60" as="geometry" />
        </mxCell>
        <mxCell id="2sYCzU9u1Vf6DmMvPqSg-15" style="edgeStyle=orthogonalEdgeStyle;rounded=0;orthogonalLoop=1;jettySize=auto;html=1;dashed=1;" edge="1" parent="1" source="2sYCzU9u1Vf6DmMvPqSg-14" target="2sYCzU9u1Vf6DmMvPqSg-12">
          <mxGeometry relative="1" as="geometry" />
        </mxCell>
        <mxCell id="2sYCzU9u1Vf6DmMvPqSg-14" value="&lt;div style=&quot;background-color: rgb(255 , 255 , 255) ; font-family: &amp;#34;droid sans mono&amp;#34; , monospace , monospace , &amp;#34;droid sans fallback&amp;#34; ; font-size: 18px ; line-height: 24px&quot;&gt;dentry_hashtable&lt;/div&gt;" style="shape=process;whiteSpace=wrap;html=1;backgroundOutline=1;" vertex="1" parent="1">
          <mxGeometry x="3303.75" y="1770" width="195" height="60" as="geometry" />
        </mxCell>
        <mxCell id="2sYCzU9u1Vf6DmMvPqSg-16" value="&lt;font style=&quot;font-size: 16px&quot;&gt;&lt;font style=&quot;font-size: 16px&quot;&gt;hashtable查找&lt;/font&gt;&lt;span style=&quot;background-color: rgb(255 , 255 , 255) ; font-family: &amp;#34;droid sans mono&amp;#34; , monospace , monospace , &amp;#34;droid sans fallback&amp;#34;&quot;&gt;dentry&lt;/span&gt;&lt;/font&gt;" style="text;html=1;align=center;verticalAlign=middle;resizable=0;points=[];autosize=1;strokeColor=none;" vertex="1" parent="1">
          <mxGeometry x="3123.75" y="1770" width="170" height="20" as="geometry" />
        </mxCell>
        <mxCell id="2sYCzU9u1Vf6DmMvPqSg-20" style="edgeStyle=orthogonalEdgeStyle;rounded=0;orthogonalLoop=1;jettySize=auto;html=1;entryX=0;entryY=0.5;entryDx=0;entryDy=0;" edge="1" parent="1" source="2sYCzU9u1Vf6DmMvPqSg-17" target="2sYCzU9u1Vf6DmMvPqSg-19">
          <mxGeometry relative="1" as="geometry" />
        </mxCell>
        <mxCell id="2sYCzU9u1Vf6DmMvPqSg-17" value="&lt;div style=&quot;background-color: rgb(255 , 255 , 255) ; font-family: &amp;#34;droid sans mono&amp;#34; , monospace , monospace , &amp;#34;droid sans fallback&amp;#34; ; font-size: 18px ; line-height: 24px&quot;&gt;d_alloc&lt;/div&gt;" style="whiteSpace=wrap;html=1;" vertex="1" parent="1">
          <mxGeometry x="2763.75" y="1850" width="120" height="60" as="geometry" />
        </mxCell>
        <mxCell id="2sYCzU9u1Vf6DmMvPqSg-22" style="edgeStyle=orthogonalEdgeStyle;rounded=0;orthogonalLoop=1;jettySize=auto;html=1;entryX=0;entryY=0.5;entryDx=0;entryDy=0;" edge="1" parent="1" source="2sYCzU9u1Vf6DmMvPqSg-19" target="2sYCzU9u1Vf6DmMvPqSg-21">
          <mxGeometry relative="1" as="geometry" />
        </mxCell>
        <mxCell id="2sYCzU9u1Vf6DmMvPqSg-19" value="&lt;div style=&quot;background-color: rgb(255 , 255 , 255) ; font-family: &amp;#34;droid sans mono&amp;#34; , monospace , monospace , &amp;#34;droid sans fallback&amp;#34; ; font-size: 18px ; line-height: 24px&quot;&gt;__d_alloc&lt;/div&gt;" style="whiteSpace=wrap;html=1;" vertex="1" parent="1">
          <mxGeometry x="2961.25" y="1850" width="120" height="60" as="geometry" />
        </mxCell>
        <mxCell id="2sYCzU9u1Vf6DmMvPqSg-21" value="&lt;div style=&quot;background-color: rgb(255 , 255 , 255) ; font-family: &amp;#34;droid sans mono&amp;#34; , monospace , monospace , &amp;#34;droid sans fallback&amp;#34; ; font-size: 18px ; line-height: 24px&quot;&gt;kmem_cache_alloc&lt;/div&gt;" style="whiteSpace=wrap;html=1;" vertex="1" parent="1">
          <mxGeometry x="3161.25" y="1850" width="190" height="60" as="geometry" />
        </mxCell>
        <mxCell id="2sYCzU9u1Vf6DmMvPqSg-24" style="edgeStyle=orthogonalEdgeStyle;rounded=0;orthogonalLoop=1;jettySize=auto;html=1;dashed=1;" edge="1" parent="1" source="2sYCzU9u1Vf6DmMvPqSg-23" target="2sYCzU9u1Vf6DmMvPqSg-21">
          <mxGeometry relative="1" as="geometry" />
        </mxCell>
        <mxCell id="2sYCzU9u1Vf6DmMvPqSg-23" value="&lt;div style=&quot;background-color: rgb(255 , 255 , 255) ; font-family: &amp;#34;droid sans mono&amp;#34; , monospace , monospace , &amp;#34;droid sans fallback&amp;#34; ; font-size: 18px ; line-height: 24px&quot;&gt;dentry_cache&lt;/div&gt;" style="shape=process;whiteSpace=wrap;html=1;backgroundOutline=1;" vertex="1" parent="1">
          <mxGeometry x="3411.25" y="1850" width="150" height="60" as="geometry" />
        </mxCell>
        <mxCell id="2sYCzU9u1Vf6DmMvPqSg-31" value="&lt;font style=&quot;font-size: 14px&quot;&gt;给新创建的identry赋值inode&lt;/font&gt;" style="text;html=1;align=center;verticalAlign=middle;resizable=0;points=[];autosize=1;strokeColor=none;" vertex="1" parent="1">
          <mxGeometry x="2486.25" y="2010" width="200" height="20" as="geometry" />
        </mxCell>
        <mxCell id="2sYCzU9u1Vf6DmMvPqSg-32" value="&lt;font style=&quot;font-size: 14px&quot;&gt;调用具体的文件系统创建inode&lt;/font&gt;" style="text;html=1;align=center;verticalAlign=middle;resizable=0;points=[];autosize=1;strokeColor=none;" vertex="1" parent="1">
          <mxGeometry x="2775" y="2020" width="210" height="20" as="geometry" />
        </mxCell>
        <mxCell id="2sYCzU9u1Vf6DmMvPqSg-38" style="edgeStyle=orthogonalEdgeStyle;rounded=0;orthogonalLoop=1;jettySize=auto;html=1;entryX=0.5;entryY=0;entryDx=0;entryDy=0;dashed=1;" edge="1" parent="1" source="2sYCzU9u1Vf6DmMvPqSg-33" target="2sYCzU9u1Vf6DmMvPqSg-35">
          <mxGeometry relative="1" as="geometry" />
        </mxCell>
        <mxCell id="2sYCzU9u1Vf6DmMvPqSg-40" style="edgeStyle=orthogonalEdgeStyle;rounded=0;orthogonalLoop=1;jettySize=auto;html=1;entryX=0;entryY=0.5;entryDx=0;entryDy=0;" edge="1" parent="1" source="2sYCzU9u1Vf6DmMvPqSg-33" target="2sYCzU9u1Vf6DmMvPqSg-39">
          <mxGeometry relative="1" as="geometry" />
        </mxCell>
        <mxCell id="2sYCzU9u1Vf6DmMvPqSg-46" style="edgeStyle=orthogonalEdgeStyle;rounded=0;orthogonalLoop=1;jettySize=auto;html=1;entryX=0;entryY=0.5;entryDx=0;entryDy=0;" edge="1" parent="1" source="2sYCzU9u1Vf6DmMvPqSg-33" target="2sYCzU9u1Vf6DmMvPqSg-45">
          <mxGeometry relative="1" as="geometry" />
        </mxCell>
        <mxCell id="2sYCzU9u1Vf6DmMvPqSg-51" style="edgeStyle=orthogonalEdgeStyle;rounded=0;orthogonalLoop=1;jettySize=auto;html=1;entryX=0;entryY=0.5;entryDx=0;entryDy=0;" edge="1" parent="1" source="2sYCzU9u1Vf6DmMvPqSg-33" target="2sYCzU9u1Vf6DmMvPqSg-47">
          <mxGeometry relative="1" as="geometry" />
        </mxCell>
        <mxCell id="2sYCzU9u1Vf6DmMvPqSg-52" style="edgeStyle=orthogonalEdgeStyle;rounded=0;orthogonalLoop=1;jettySize=auto;html=1;entryX=0;entryY=0.5;entryDx=0;entryDy=0;" edge="1" parent="1" source="2sYCzU9u1Vf6DmMvPqSg-33" target="2sYCzU9u1Vf6DmMvPqSg-49">
          <mxGeometry relative="1" as="geometry" />
        </mxCell>
        <mxCell id="2sYCzU9u1Vf6DmMvPqSg-53" style="edgeStyle=orthogonalEdgeStyle;rounded=0;orthogonalLoop=1;jettySize=auto;html=1;entryX=0;entryY=0.5;entryDx=0;entryDy=0;" edge="1" parent="1" source="2sYCzU9u1Vf6DmMvPqSg-33" target="2sYCzU9u1Vf6DmMvPqSg-50">
          <mxGeometry relative="1" as="geometry" />
        </mxCell>
        <mxCell id="2sYCzU9u1Vf6DmMvPqSg-33" value="&lt;div style=&quot;background-color: rgb(255 , 255 , 255) ; font-family: &amp;#34;droid sans mono&amp;#34; , monospace , monospace , &amp;#34;droid sans fallback&amp;#34; ; font-size: 18px ; line-height: 24px&quot;&gt;fat_build_inode&lt;/div&gt;" style="whiteSpace=wrap;html=1;" vertex="1" parent="1">
          <mxGeometry x="3040" y="1941" width="150" height="60" as="geometry" />
        </mxCell>
        <mxCell id="2sYCzU9u1Vf6DmMvPqSg-35" value="&lt;div style=&quot;background-color: rgb(255 , 255 , 255) ; font-family: &amp;#34;droid sans mono&amp;#34; , monospace , monospace , &amp;#34;droid sans fallback&amp;#34; ; font-size: 18px ; line-height: 24px&quot;&gt;d_instantiate&lt;/div&gt;" style="whiteSpace=wrap;html=1;" vertex="1" parent="1">
          <mxGeometry x="3055" y="2066" width="120" height="60" as="geometry" />
        </mxCell>
        <mxCell id="2sYCzU9u1Vf6DmMvPqSg-37" value="&lt;font style=&quot;font-size: 14px&quot;&gt;&lt;font style=&quot;font-size: 14px&quot;&gt;inode赋值给dentry的&lt;/font&gt;&lt;span style=&quot;font-family: &amp;#34;gotham&amp;#34; , &amp;#34;helvetica&amp;#34; , &amp;#34;arial&amp;#34; , sans-serif&quot;&gt;d_inode&lt;/span&gt;&lt;/font&gt;" style="text;html=1;align=center;verticalAlign=middle;resizable=0;points=[];autosize=1;strokeColor=none;" vertex="1" parent="1">
          <mxGeometry x="3010" y="2140" width="210" height="20" as="geometry" />
        </mxCell>
        <mxCell id="2sYCzU9u1Vf6DmMvPqSg-39" value="&lt;div style=&quot;background-color: rgb(255 , 255 , 255) ; font-family: &amp;#34;droid sans mono&amp;#34; , monospace , monospace , &amp;#34;droid sans fallback&amp;#34; ; font-size: 18px ; line-height: 24px&quot;&gt;fat_iget&lt;/div&gt;" style="whiteSpace=wrap;html=1;" vertex="1" parent="1">
          <mxGeometry x="3320" y="1940" width="120" height="60" as="geometry" />
        </mxCell>
        <mxCell id="2sYCzU9u1Vf6DmMvPqSg-42" style="edgeStyle=orthogonalEdgeStyle;rounded=0;orthogonalLoop=1;jettySize=auto;html=1;dashed=1;" edge="1" parent="1" source="2sYCzU9u1Vf6DmMvPqSg-41" target="2sYCzU9u1Vf6DmMvPqSg-39">
          <mxGeometry relative="1" as="geometry" />
        </mxCell>
        <mxCell id="2sYCzU9u1Vf6DmMvPqSg-41" value="&lt;div style=&quot;background-color: rgb(255 , 255 , 255) ; font-family: &amp;#34;droid sans mono&amp;#34; , monospace , monospace , &amp;#34;droid sans fallback&amp;#34; ; font-size: 18px ; line-height: 24px&quot;&gt;inode_hashtable&lt;/div&gt;" style="shape=process;whiteSpace=wrap;html=1;backgroundOutline=1;" vertex="1" parent="1">
          <mxGeometry x="3540" y="1941" width="210" height="60" as="geometry" />
        </mxCell>
        <mxCell id="2sYCzU9u1Vf6DmMvPqSg-45" value="&lt;span style=&quot;font-family: &amp;#34;droid sans mono&amp;#34; , monospace , monospace , &amp;#34;droid sans fallback&amp;#34; ; font-size: 18px ; background-color: rgb(255 , 255 , 255)&quot;&gt;new_inode&lt;/span&gt;" style="whiteSpace=wrap;html=1;" vertex="1" parent="1">
          <mxGeometry x="3320" y="2020" width="120" height="60" as="geometry" />
        </mxCell>
        <mxCell id="2sYCzU9u1Vf6DmMvPqSg-47" value="&lt;div style=&quot;background-color: rgb(255 , 255 , 255) ; font-family: &amp;#34;droid sans mono&amp;#34; , monospace , monospace , &amp;#34;droid sans fallback&amp;#34; ; font-size: 18px ; line-height: 24px&quot;&gt;fat_fill_inode&lt;/div&gt;" style="whiteSpace=wrap;html=1;" vertex="1" parent="1">
          <mxGeometry x="3320" y="2105" width="120" height="60" as="geometry" />
        </mxCell>
        <mxCell id="2sYCzU9u1Vf6DmMvPqSg-49" value="&lt;div style=&quot;background-color: rgb(255 , 255 , 255) ; font-family: &amp;#34;droid sans mono&amp;#34; , monospace , monospace , &amp;#34;droid sans fallback&amp;#34; ; font-size: 18px ; line-height: 24px&quot;&gt;fat_attach&lt;/div&gt;" style="whiteSpace=wrap;html=1;" vertex="1" parent="1">
          <mxGeometry x="3320" y="2190" width="120" height="60" as="geometry" />
        </mxCell>
        <mxCell id="2sYCzU9u1Vf6DmMvPqSg-50" value="&lt;div style=&quot;background-color: rgb(255 , 255 , 255) ; font-family: &amp;#34;droid sans mono&amp;#34; , monospace , monospace , &amp;#34;droid sans fallback&amp;#34; ; font-size: 18px ; line-height: 24px&quot;&gt;insert_inode_hash&lt;/div&gt;" style="whiteSpace=wrap;html=1;" vertex="1" parent="1">
          <mxGeometry x="3320" y="2278" width="170" height="60" as="geometry" />
        </mxCell>
        <mxCell id="2sYCzU9u1Vf6DmMvPqSg-55" value="&lt;font style=&quot;font-size: 15px&quot;&gt;设置file结构体，最重要设置&lt;br&gt;&lt;span style=&quot;background-color: rgb(255 , 255 , 255) ; font-family: &amp;#34;droid sans mono&amp;#34; , monospace , monospace , &amp;#34;droid sans fallback&amp;#34;&quot;&gt;f_op，&lt;/span&gt;&lt;span style=&quot;background-color: rgb(255 , 255 , 255) ; font-family: &amp;#34;droid sans mono&amp;#34; , monospace , monospace , &amp;#34;droid sans fallback&amp;#34;&quot;&gt;f_mapping&lt;/span&gt;&lt;/font&gt;" style="text;html=1;align=center;verticalAlign=middle;resizable=0;points=[];autosize=1;strokeColor=none;" vertex="1" parent="1">
          <mxGeometry x="2492.5" y="2412" width="200" height="40" as="geometry" />
        </mxCell>
      </root>
    </mxGraphModel>
  </diagram>
</mxfile>
